<?xml version="1.0" standalone="yes"?>
<svg xmlns="http://www.w3.org/2000/svg" version="1.1" width="1000" height="1000">
  <rect x="0" y="0" width="1000" height="1000" style="fill:#ffffff;shape-rendering:crispEdges;"/>
  <rect x="97.5609756097561" y="97.5609756097561" width="24.390243902439025" height="24.390243902439025" style="fill:#000000;shape-rendering:crispEdges;"/>
  <rect x="121.95121951219512" y="97.5609756097561" width="24.390243902439025" height="24.390243902439025" style="fill:#000000;shape-rendering:crispEdges;"/>
  <rect x="146.34146341463415" y="97.5609756097561" width="24.390243902439025" height="24.390243902439025" style="fill:#000000;shape-rendering:crispEdges;"/>
  <rect x="170.7317073170732" y="97.5609756097561" width="24.390243902439025" height="24.390243902439025" style="fill:#000000;shape-rendering:crispEdges;"/>
  <rect x="195.1219512195122" y="97.5609756097561" width="24.390243902439025" height="24.390243902439025" style="fill:#000000;shape-rendering:crispEdges;"/>
  <rect x="219.5121951219512" y="97.5609756097561" width="24.390243902439025" height="24.390243902439025" style="fill:#000000;shape-rendering:crispEdges;"/>
  <rect x="243.90243902439025" y="97.5609756097561" width="24.390243902439025" height="24.390243902439025" style="fill:#000000;shape-rendering:crispEdges;"/>
  <rect x="317.0731707317073" y="97.5609756097561" width="24.390243902439025" height="24.390243902439025" style="fill:#000000;shape-rendering:crispEdges;"/>
  <rect x="341.4634146341464" y="97.5609756097561" width="24.390243902439025" height="24.390243902439025" style="fill:#000000;shape-rendering:crispEdges;"/>
  <rect x="414.6341463414634" y="97.5609756097561" width="24.390243902439025" height="24.390243902439025" style="fill:#000000;shape-rendering:crispEdges;"/>
  <rect x="463.4146341463415" y="97.5609756097561" width="24.390243902439025" height="24.390243902439025" style="fill:#000000;shape-rendering:crispEdges;"/>
  <rect x="512.1951219512196" y="97.5609756097561" width="24.390243902439025" height="24.390243902439025" style="fill:#000000;shape-rendering:crispEdges;"/>
  <rect x="609.7560975609756" y="97.5609756097561" width="24.390243902439025" height="24.390243902439025" style="fill:#000000;shape-rendering:crispEdges;"/>
  <rect x="682.9268292682927" y="97.5609756097561" width="24.390243902439025" height="24.390243902439025" style="fill:#000000;shape-rendering:crispEdges;"/>
  <rect x="731.7073170731708" y="97.5609756097561" width="24.390243902439025" height="24.390243902439025" style="fill:#000000;shape-rendering:crispEdges;"/>
  <rect x="756.0975609756097" y="97.5609756097561" width="24.390243902439025" height="24.390243902439025" style="fill:#000000;shape-rendering:crispEdges;"/>
  <rect x="780.4878048780488" y="97.5609756097561" width="24.390243902439025" height="24.390243902439025" style="fill:#000000;shape-rendering:crispEdges;"/>
  <rect x="804.8780487804879" y="97.5609756097561" width="24.390243902439025" height="24.390243902439025" style="fill:#000000;shape-rendering:crispEdges;"/>
  <rect x="829.2682926829268" y="97.5609756097561" width="24.390243902439025" height="24.390243902439025" style="fill:#000000;shape-rendering:crispEdges;"/>
  <rect x="853.6585365853659" y="97.5609756097561" width="24.390243902439025" height="24.390243902439025" style="fill:#000000;shape-rendering:crispEdges;"/>
  <rect x="878.0487804878048" y="97.5609756097561" width="24.390243902439025" height="24.390243902439025" style="fill:#000000;shape-rendering:crispEdges;"/>
  <rect x="97.5609756097561" y="121.95121951219512" width="24.390243902439025" height="24.390243902439025" style="fill:#000000;shape-rendering:crispEdges;"/>
  <rect x="243.90243902439025" y="121.95121951219512" width="24.390243902439025" height="24.390243902439025" style="fill:#000000;shape-rendering:crispEdges;"/>
  <rect x="292.6829268292683" y="121.95121951219512" width="24.390243902439025" height="24.390243902439025" style="fill:#000000;shape-rendering:crispEdges;"/>
  <rect x="317.0731707317073" y="121.95121951219512" width="24.390243902439025" height="24.390243902439025" style="fill:#000000;shape-rendering:crispEdges;"/>
  <rect x="365.8536585365854" y="121.95121951219512" width="24.390243902439025" height="24.390243902439025" style="fill:#000000;shape-rendering:crispEdges;"/>
  <rect x="414.6341463414634" y="121.95121951219512" width="24.390243902439025" height="24.390243902439025" style="fill:#000000;shape-rendering:crispEdges;"/>
  <rect x="439.0243902439025" y="121.95121951219512" width="24.390243902439025" height="24.390243902439025" style="fill:#000000;shape-rendering:crispEdges;"/>
  <rect x="463.4146341463415" y="121.95121951219512" width="24.390243902439025" height="24.390243902439025" style="fill:#000000;shape-rendering:crispEdges;"/>
  <rect x="682.9268292682927" y="121.95121951219512" width="24.390243902439025" height="24.390243902439025" style="fill:#000000;shape-rendering:crispEdges;"/>
  <rect x="731.7073170731708" y="121.95121951219512" width="24.390243902439025" height="24.390243902439025" style="fill:#000000;shape-rendering:crispEdges;"/>
  <rect x="878.0487804878048" y="121.95121951219512" width="24.390243902439025" height="24.390243902439025" style="fill:#000000;shape-rendering:crispEdges;"/>
  <rect x="97.5609756097561" y="146.34146341463415" width="24.390243902439025" height="24.390243902439025" style="fill:#000000;shape-rendering:crispEdges;"/>
  <rect x="146.34146341463415" y="146.34146341463415" width="24.390243902439025" height="24.390243902439025" style="fill:#000000;shape-rendering:crispEdges;"/>
  <rect x="170.7317073170732" y="146.34146341463415" width="24.390243902439025" height="24.390243902439025" style="fill:#000000;shape-rendering:crispEdges;"/>
  <rect x="195.1219512195122" y="146.34146341463415" width="24.390243902439025" height="24.390243902439025" style="fill:#000000;shape-rendering:crispEdges;"/>
  <rect x="243.90243902439025" y="146.34146341463415" width="24.390243902439025" height="24.390243902439025" style="fill:#000000;shape-rendering:crispEdges;"/>
  <rect x="365.8536585365854" y="146.34146341463415" width="24.390243902439025" height="24.390243902439025" style="fill:#000000;shape-rendering:crispEdges;"/>
  <rect x="414.6341463414634" y="146.34146341463415" width="24.390243902439025" height="24.390243902439025" style="fill:#000000;shape-rendering:crispEdges;"/>
  <rect x="463.4146341463415" y="146.34146341463415" width="24.390243902439025" height="24.390243902439025" style="fill:#000000;shape-rendering:crispEdges;"/>
  <rect x="487.8048780487805" y="146.34146341463415" width="24.390243902439025" height="24.390243902439025" style="fill:#000000;shape-rendering:crispEdges;"/>
  <rect x="536.5853658536585" y="146.34146341463415" width="24.390243902439025" height="24.390243902439025" style="fill:#000000;shape-rendering:crispEdges;"/>
  <rect x="560.9756097560976" y="146.34146341463415" width="24.390243902439025" height="24.390243902439025" style="fill:#000000;shape-rendering:crispEdges;"/>
  <rect x="658.5365853658536" y="146.34146341463415" width="24.390243902439025" height="24.390243902439025" style="fill:#000000;shape-rendering:crispEdges;"/>
  <rect x="682.9268292682927" y="146.34146341463415" width="24.390243902439025" height="24.390243902439025" style="fill:#000000;shape-rendering:crispEdges;"/>
  <rect x="731.7073170731708" y="146.34146341463415" width="24.390243902439025" height="24.390243902439025" style="fill:#000000;shape-rendering:crispEdges;"/>
  <rect x="780.4878048780488" y="146.34146341463415" width="24.390243902439025" height="24.390243902439025" style="fill:#000000;shape-rendering:crispEdges;"/>
  <rect x="804.8780487804879" y="146.34146341463415" width="24.390243902439025" height="24.390243902439025" style="fill:#000000;shape-rendering:crispEdges;"/>
  <rect x="829.2682926829268" y="146.34146341463415" width="24.390243902439025" height="24.390243902439025" style="fill:#000000;shape-rendering:crispEdges;"/>
  <rect x="878.0487804878048" y="146.34146341463415" width="24.390243902439025" height="24.390243902439025" style="fill:#000000;shape-rendering:crispEdges;"/>
  <rect x="97.5609756097561" y="170.7317073170732" width="24.390243902439025" height="24.390243902439025" style="fill:#000000;shape-rendering:crispEdges;"/>
  <rect x="146.34146341463415" y="170.7317073170732" width="24.390243902439025" height="24.390243902439025" style="fill:#000000;shape-rendering:crispEdges;"/>
  <rect x="170.7317073170732" y="170.7317073170732" width="24.390243902439025" height="24.390243902439025" style="fill:#000000;shape-rendering:crispEdges;"/>
  <rect x="195.1219512195122" y="170.7317073170732" width="24.390243902439025" height="24.390243902439025" style="fill:#000000;shape-rendering:crispEdges;"/>
  <rect x="243.90243902439025" y="170.7317073170732" width="24.390243902439025" height="24.390243902439025" style="fill:#000000;shape-rendering:crispEdges;"/>
  <rect x="317.0731707317073" y="170.7317073170732" width="24.390243902439025" height="24.390243902439025" style="fill:#000000;shape-rendering:crispEdges;"/>
  <rect x="341.4634146341464" y="170.7317073170732" width="24.390243902439025" height="24.390243902439025" style="fill:#000000;shape-rendering:crispEdges;"/>
  <rect x="414.6341463414634" y="170.7317073170732" width="24.390243902439025" height="24.390243902439025" style="fill:#000000;shape-rendering:crispEdges;"/>
  <rect x="439.0243902439025" y="170.7317073170732" width="24.390243902439025" height="24.390243902439025" style="fill:#000000;shape-rendering:crispEdges;"/>
  <rect x="463.4146341463415" y="170.7317073170732" width="24.390243902439025" height="24.390243902439025" style="fill:#000000;shape-rendering:crispEdges;"/>
  <rect x="512.1951219512196" y="170.7317073170732" width="24.390243902439025" height="24.390243902439025" style="fill:#000000;shape-rendering:crispEdges;"/>
  <rect x="536.5853658536585" y="170.7317073170732" width="24.390243902439025" height="24.390243902439025" style="fill:#000000;shape-rendering:crispEdges;"/>
  <rect x="634.1463414634147" y="170.7317073170732" width="24.390243902439025" height="24.390243902439025" style="fill:#000000;shape-rendering:crispEdges;"/>
  <rect x="658.5365853658536" y="170.7317073170732" width="24.390243902439025" height="24.390243902439025" style="fill:#000000;shape-rendering:crispEdges;"/>
  <rect x="731.7073170731708" y="170.7317073170732" width="24.390243902439025" height="24.390243902439025" style="fill:#000000;shape-rendering:crispEdges;"/>
  <rect x="780.4878048780488" y="170.7317073170732" width="24.390243902439025" height="24.390243902439025" style="fill:#000000;shape-rendering:crispEdges;"/>
  <rect x="804.8780487804879" y="170.7317073170732" width="24.390243902439025" height="24.390243902439025" style="fill:#000000;shape-rendering:crispEdges;"/>
  <rect x="829.2682926829268" y="170.7317073170732" width="24.390243902439025" height="24.390243902439025" style="fill:#000000;shape-rendering:crispEdges;"/>
  <rect x="878.0487804878048" y="170.7317073170732" width="24.390243902439025" height="24.390243902439025" style="fill:#000000;shape-rendering:crispEdges;"/>
  <rect x="97.5609756097561" y="195.1219512195122" width="24.390243902439025" height="24.390243902439025" style="fill:#000000;shape-rendering:crispEdges;"/>
  <rect x="146.34146341463415" y="195.1219512195122" width="24.390243902439025" height="24.390243902439025" style="fill:#000000;shape-rendering:crispEdges;"/>
  <rect x="170.7317073170732" y="195.1219512195122" width="24.390243902439025" height="24.390243902439025" style="fill:#000000;shape-rendering:crispEdges;"/>
  <rect x="195.1219512195122" y="195.1219512195122" width="24.390243902439025" height="24.390243902439025" style="fill:#000000;shape-rendering:crispEdges;"/>
  <rect x="243.90243902439025" y="195.1219512195122" width="24.390243902439025" height="24.390243902439025" style="fill:#000000;shape-rendering:crispEdges;"/>
  <rect x="292.6829268292683" y="195.1219512195122" width="24.390243902439025" height="24.390243902439025" style="fill:#000000;shape-rendering:crispEdges;"/>
  <rect x="317.0731707317073" y="195.1219512195122" width="24.390243902439025" height="24.390243902439025" style="fill:#000000;shape-rendering:crispEdges;"/>
  <rect x="341.4634146341464" y="195.1219512195122" width="24.390243902439025" height="24.390243902439025" style="fill:#000000;shape-rendering:crispEdges;"/>
  <rect x="463.4146341463415" y="195.1219512195122" width="24.390243902439025" height="24.390243902439025" style="fill:#000000;shape-rendering:crispEdges;"/>
  <rect x="536.5853658536585" y="195.1219512195122" width="24.390243902439025" height="24.390243902439025" style="fill:#000000;shape-rendering:crispEdges;"/>
  <rect x="560.9756097560976" y="195.1219512195122" width="24.390243902439025" height="24.390243902439025" style="fill:#000000;shape-rendering:crispEdges;"/>
  <rect x="634.1463414634147" y="195.1219512195122" width="24.390243902439025" height="24.390243902439025" style="fill:#000000;shape-rendering:crispEdges;"/>
  <rect x="682.9268292682927" y="195.1219512195122" width="24.390243902439025" height="24.390243902439025" style="fill:#000000;shape-rendering:crispEdges;"/>
  <rect x="731.7073170731708" y="195.1219512195122" width="24.390243902439025" height="24.390243902439025" style="fill:#000000;shape-rendering:crispEdges;"/>
  <rect x="780.4878048780488" y="195.1219512195122" width="24.390243902439025" height="24.390243902439025" style="fill:#000000;shape-rendering:crispEdges;"/>
  <rect x="804.8780487804879" y="195.1219512195122" width="24.390243902439025" height="24.390243902439025" style="fill:#000000;shape-rendering:crispEdges;"/>
  <rect x="829.2682926829268" y="195.1219512195122" width="24.390243902439025" height="24.390243902439025" style="fill:#000000;shape-rendering:crispEdges;"/>
  <rect x="878.0487804878048" y="195.1219512195122" width="24.390243902439025" height="24.390243902439025" style="fill:#000000;shape-rendering:crispEdges;"/>
  <rect x="97.5609756097561" y="219.5121951219512" width="24.390243902439025" height="24.390243902439025" style="fill:#000000;shape-rendering:crispEdges;"/>
  <rect x="243.90243902439025" y="219.5121951219512" width="24.390243902439025" height="24.390243902439025" style="fill:#000000;shape-rendering:crispEdges;"/>
  <rect x="317.0731707317073" y="219.5121951219512" width="24.390243902439025" height="24.390243902439025" style="fill:#000000;shape-rendering:crispEdges;"/>
  <rect x="365.8536585365854" y="219.5121951219512" width="24.390243902439025" height="24.390243902439025" style="fill:#000000;shape-rendering:crispEdges;"/>
  <rect x="390.2439024390244" y="219.5121951219512" width="24.390243902439025" height="24.390243902439025" style="fill:#000000;shape-rendering:crispEdges;"/>
  <rect x="487.8048780487805" y="219.5121951219512" width="24.390243902439025" height="24.390243902439025" style="fill:#000000;shape-rendering:crispEdges;"/>
  <rect x="536.5853658536585" y="219.5121951219512" width="24.390243902439025" height="24.390243902439025" style="fill:#000000;shape-rendering:crispEdges;"/>
  <rect x="560.9756097560976" y="219.5121951219512" width="24.390243902439025" height="24.390243902439025" style="fill:#000000;shape-rendering:crispEdges;"/>
  <rect x="682.9268292682927" y="219.5121951219512" width="24.390243902439025" height="24.390243902439025" style="fill:#000000;shape-rendering:crispEdges;"/>
  <rect x="731.7073170731708" y="219.5121951219512" width="24.390243902439025" height="24.390243902439025" style="fill:#000000;shape-rendering:crispEdges;"/>
  <rect x="878.0487804878048" y="219.5121951219512" width="24.390243902439025" height="24.390243902439025" style="fill:#000000;shape-rendering:crispEdges;"/>
  <rect x="97.5609756097561" y="243.90243902439025" width="24.390243902439025" height="24.390243902439025" style="fill:#000000;shape-rendering:crispEdges;"/>
  <rect x="121.95121951219512" y="243.90243902439025" width="24.390243902439025" height="24.390243902439025" style="fill:#000000;shape-rendering:crispEdges;"/>
  <rect x="146.34146341463415" y="243.90243902439025" width="24.390243902439025" height="24.390243902439025" style="fill:#000000;shape-rendering:crispEdges;"/>
  <rect x="170.7317073170732" y="243.90243902439025" width="24.390243902439025" height="24.390243902439025" style="fill:#000000;shape-rendering:crispEdges;"/>
  <rect x="195.1219512195122" y="243.90243902439025" width="24.390243902439025" height="24.390243902439025" style="fill:#000000;shape-rendering:crispEdges;"/>
  <rect x="219.5121951219512" y="243.90243902439025" width="24.390243902439025" height="24.390243902439025" style="fill:#000000;shape-rendering:crispEdges;"/>
  <rect x="243.90243902439025" y="243.90243902439025" width="24.390243902439025" height="24.390243902439025" style="fill:#000000;shape-rendering:crispEdges;"/>
  <rect x="292.6829268292683" y="243.90243902439025" width="24.390243902439025" height="24.390243902439025" style="fill:#000000;shape-rendering:crispEdges;"/>
  <rect x="341.4634146341464" y="243.90243902439025" width="24.390243902439025" height="24.390243902439025" style="fill:#000000;shape-rendering:crispEdges;"/>
  <rect x="390.2439024390244" y="243.90243902439025" width="24.390243902439025" height="24.390243902439025" style="fill:#000000;shape-rendering:crispEdges;"/>
  <rect x="439.0243902439025" y="243.90243902439025" width="24.390243902439025" height="24.390243902439025" style="fill:#000000;shape-rendering:crispEdges;"/>
  <rect x="487.8048780487805" y="243.90243902439025" width="24.390243902439025" height="24.390243902439025" style="fill:#000000;shape-rendering:crispEdges;"/>
  <rect x="536.5853658536585" y="243.90243902439025" width="24.390243902439025" height="24.390243902439025" style="fill:#000000;shape-rendering:crispEdges;"/>
  <rect x="585.3658536585366" y="243.90243902439025" width="24.390243902439025" height="24.390243902439025" style="fill:#000000;shape-rendering:crispEdges;"/>
  <rect x="634.1463414634147" y="243.90243902439025" width="24.390243902439025" height="24.390243902439025" style="fill:#000000;shape-rendering:crispEdges;"/>
  <rect x="682.9268292682927" y="243.90243902439025" width="24.390243902439025" height="24.390243902439025" style="fill:#000000;shape-rendering:crispEdges;"/>
  <rect x="731.7073170731708" y="243.90243902439025" width="24.390243902439025" height="24.390243902439025" style="fill:#000000;shape-rendering:crispEdges;"/>
  <rect x="756.0975609756097" y="243.90243902439025" width="24.390243902439025" height="24.390243902439025" style="fill:#000000;shape-rendering:crispEdges;"/>
  <rect x="780.4878048780488" y="243.90243902439025" width="24.390243902439025" height="24.390243902439025" style="fill:#000000;shape-rendering:crispEdges;"/>
  <rect x="804.8780487804879" y="243.90243902439025" width="24.390243902439025" height="24.390243902439025" style="fill:#000000;shape-rendering:crispEdges;"/>
  <rect x="829.2682926829268" y="243.90243902439025" width="24.390243902439025" height="24.390243902439025" style="fill:#000000;shape-rendering:crispEdges;"/>
  <rect x="853.6585365853659" y="243.90243902439025" width="24.390243902439025" height="24.390243902439025" style="fill:#000000;shape-rendering:crispEdges;"/>
  <rect x="878.0487804878048" y="243.90243902439025" width="24.390243902439025" height="24.390243902439025" style="fill:#000000;shape-rendering:crispEdges;"/>
  <rect x="341.4634146341464" y="268.2926829268293" width="24.390243902439025" height="24.390243902439025" style="fill:#000000;shape-rendering:crispEdges;"/>
  <rect x="365.8536585365854" y="268.2926829268293" width="24.390243902439025" height="24.390243902439025" style="fill:#000000;shape-rendering:crispEdges;"/>
  <rect x="463.4146341463415" y="268.2926829268293" width="24.390243902439025" height="24.390243902439025" style="fill:#000000;shape-rendering:crispEdges;"/>
  <rect x="512.1951219512196" y="268.2926829268293" width="24.390243902439025" height="24.390243902439025" style="fill:#000000;shape-rendering:crispEdges;"/>
  <rect x="560.9756097560976" y="268.2926829268293" width="24.390243902439025" height="24.390243902439025" style="fill:#000000;shape-rendering:crispEdges;"/>
  <rect x="585.3658536585366" y="268.2926829268293" width="24.390243902439025" height="24.390243902439025" style="fill:#000000;shape-rendering:crispEdges;"/>
  <rect x="634.1463414634147" y="268.2926829268293" width="24.390243902439025" height="24.390243902439025" style="fill:#000000;shape-rendering:crispEdges;"/>
  <rect x="146.34146341463415" y="292.6829268292683" width="24.390243902439025" height="24.390243902439025" style="fill:#000000;shape-rendering:crispEdges;"/>
  <rect x="195.1219512195122" y="292.6829268292683" width="24.390243902439025" height="24.390243902439025" style="fill:#000000;shape-rendering:crispEdges;"/>
  <rect x="219.5121951219512" y="292.6829268292683" width="24.390243902439025" height="24.390243902439025" style="fill:#000000;shape-rendering:crispEdges;"/>
  <rect x="243.90243902439025" y="292.6829268292683" width="24.390243902439025" height="24.390243902439025" style="fill:#000000;shape-rendering:crispEdges;"/>
  <rect x="292.6829268292683" y="292.6829268292683" width="24.390243902439025" height="24.390243902439025" style="fill:#000000;shape-rendering:crispEdges;"/>
  <rect x="317.0731707317073" y="292.6829268292683" width="24.390243902439025" height="24.390243902439025" style="fill:#000000;shape-rendering:crispEdges;"/>
  <rect x="365.8536585365854" y="292.6829268292683" width="24.390243902439025" height="24.390243902439025" style="fill:#000000;shape-rendering:crispEdges;"/>
  <rect x="439.0243902439025" y="292.6829268292683" width="24.390243902439025" height="24.390243902439025" style="fill:#000000;shape-rendering:crispEdges;"/>
  <rect x="463.4146341463415" y="292.6829268292683" width="24.390243902439025" height="24.390243902439025" style="fill:#000000;shape-rendering:crispEdges;"/>
  <rect x="512.1951219512196" y="292.6829268292683" width="24.390243902439025" height="24.390243902439025" style="fill:#000000;shape-rendering:crispEdges;"/>
  <rect x="536.5853658536585" y="292.6829268292683" width="24.390243902439025" height="24.390243902439025" style="fill:#000000;shape-rendering:crispEdges;"/>
  <rect x="560.9756097560976" y="292.6829268292683" width="24.390243902439025" height="24.390243902439025" style="fill:#000000;shape-rendering:crispEdges;"/>
  <rect x="682.9268292682927" y="292.6829268292683" width="24.390243902439025" height="24.390243902439025" style="fill:#000000;shape-rendering:crispEdges;"/>
  <rect x="707.3170731707316" y="292.6829268292683" width="24.390243902439025" height="24.390243902439025" style="fill:#000000;shape-rendering:crispEdges;"/>
  <rect x="780.4878048780488" y="292.6829268292683" width="24.390243902439025" height="24.390243902439025" style="fill:#000000;shape-rendering:crispEdges;"/>
  <rect x="853.6585365853659" y="292.6829268292683" width="24.390243902439025" height="24.390243902439025" style="fill:#000000;shape-rendering:crispEdges;"/>
  <rect x="97.5609756097561" y="317.0731707317073" width="24.390243902439025" height="24.390243902439025" style="fill:#000000;shape-rendering:crispEdges;"/>
  <rect x="170.7317073170732" y="317.0731707317073" width="24.390243902439025" height="24.390243902439025" style="fill:#000000;shape-rendering:crispEdges;"/>
  <rect x="219.5121951219512" y="317.0731707317073" width="24.390243902439025" height="24.390243902439025" style="fill:#000000;shape-rendering:crispEdges;"/>
  <rect x="268.2926829268293" y="317.0731707317073" width="24.390243902439025" height="24.390243902439025" style="fill:#000000;shape-rendering:crispEdges;"/>
  <rect x="365.8536585365854" y="317.0731707317073" width="24.390243902439025" height="24.390243902439025" style="fill:#000000;shape-rendering:crispEdges;"/>
  <rect x="390.2439024390244" y="317.0731707317073" width="24.390243902439025" height="24.390243902439025" style="fill:#000000;shape-rendering:crispEdges;"/>
  <rect x="463.4146341463415" y="317.0731707317073" width="24.390243902439025" height="24.390243902439025" style="fill:#000000;shape-rendering:crispEdges;"/>
  <rect x="560.9756097560976" y="317.0731707317073" width="24.390243902439025" height="24.390243902439025" style="fill:#000000;shape-rendering:crispEdges;"/>
  <rect x="658.5365853658536" y="317.0731707317073" width="24.390243902439025" height="24.390243902439025" style="fill:#000000;shape-rendering:crispEdges;"/>
  <rect x="682.9268292682927" y="317.0731707317073" width="24.390243902439025" height="24.390243902439025" style="fill:#000000;shape-rendering:crispEdges;"/>
  <rect x="731.7073170731708" y="317.0731707317073" width="24.390243902439025" height="24.390243902439025" style="fill:#000000;shape-rendering:crispEdges;"/>
  <rect x="804.8780487804879" y="317.0731707317073" width="24.390243902439025" height="24.390243902439025" style="fill:#000000;shape-rendering:crispEdges;"/>
  <rect x="829.2682926829268" y="317.0731707317073" width="24.390243902439025" height="24.390243902439025" style="fill:#000000;shape-rendering:crispEdges;"/>
  <rect x="853.6585365853659" y="317.0731707317073" width="24.390243902439025" height="24.390243902439025" style="fill:#000000;shape-rendering:crispEdges;"/>
  <rect x="878.0487804878048" y="317.0731707317073" width="24.390243902439025" height="24.390243902439025" style="fill:#000000;shape-rendering:crispEdges;"/>
  <rect x="97.5609756097561" y="341.4634146341464" width="24.390243902439025" height="24.390243902439025" style="fill:#000000;shape-rendering:crispEdges;"/>
  <rect x="146.34146341463415" y="341.4634146341464" width="24.390243902439025" height="24.390243902439025" style="fill:#000000;shape-rendering:crispEdges;"/>
  <rect x="195.1219512195122" y="341.4634146341464" width="24.390243902439025" height="24.390243902439025" style="fill:#000000;shape-rendering:crispEdges;"/>
  <rect x="219.5121951219512" y="341.4634146341464" width="24.390243902439025" height="24.390243902439025" style="fill:#000000;shape-rendering:crispEdges;"/>
  <rect x="243.90243902439025" y="341.4634146341464" width="24.390243902439025" height="24.390243902439025" style="fill:#000000;shape-rendering:crispEdges;"/>
  <rect x="292.6829268292683" y="341.4634146341464" width="24.390243902439025" height="24.390243902439025" style="fill:#000000;shape-rendering:crispEdges;"/>
  <rect x="317.0731707317073" y="341.4634146341464" width="24.390243902439025" height="24.390243902439025" style="fill:#000000;shape-rendering:crispEdges;"/>
  <rect x="341.4634146341464" y="341.4634146341464" width="24.390243902439025" height="24.390243902439025" style="fill:#000000;shape-rendering:crispEdges;"/>
  <rect x="365.8536585365854" y="341.4634146341464" width="24.390243902439025" height="24.390243902439025" style="fill:#000000;shape-rendering:crispEdges;"/>
  <rect x="390.2439024390244" y="341.4634146341464" width="24.390243902439025" height="24.390243902439025" style="fill:#000000;shape-rendering:crispEdges;"/>
  <rect x="414.6341463414634" y="341.4634146341464" width="24.390243902439025" height="24.390243902439025" style="fill:#000000;shape-rendering:crispEdges;"/>
  <rect x="439.0243902439025" y="341.4634146341464" width="24.390243902439025" height="24.390243902439025" style="fill:#000000;shape-rendering:crispEdges;"/>
  <rect x="463.4146341463415" y="341.4634146341464" width="24.390243902439025" height="24.390243902439025" style="fill:#000000;shape-rendering:crispEdges;"/>
  <rect x="512.1951219512196" y="341.4634146341464" width="24.390243902439025" height="24.390243902439025" style="fill:#000000;shape-rendering:crispEdges;"/>
  <rect x="536.5853658536585" y="341.4634146341464" width="24.390243902439025" height="24.390243902439025" style="fill:#000000;shape-rendering:crispEdges;"/>
  <rect x="560.9756097560976" y="341.4634146341464" width="24.390243902439025" height="24.390243902439025" style="fill:#000000;shape-rendering:crispEdges;"/>
  <rect x="634.1463414634147" y="341.4634146341464" width="24.390243902439025" height="24.390243902439025" style="fill:#000000;shape-rendering:crispEdges;"/>
  <rect x="658.5365853658536" y="341.4634146341464" width="24.390243902439025" height="24.390243902439025" style="fill:#000000;shape-rendering:crispEdges;"/>
  <rect x="682.9268292682927" y="341.4634146341464" width="24.390243902439025" height="24.390243902439025" style="fill:#000000;shape-rendering:crispEdges;"/>
  <rect x="756.0975609756097" y="341.4634146341464" width="24.390243902439025" height="24.390243902439025" style="fill:#000000;shape-rendering:crispEdges;"/>
  <rect x="853.6585365853659" y="341.4634146341464" width="24.390243902439025" height="24.390243902439025" style="fill:#000000;shape-rendering:crispEdges;"/>
  <rect x="170.7317073170732" y="365.8536585365854" width="24.390243902439025" height="24.390243902439025" style="fill:#000000;shape-rendering:crispEdges;"/>
  <rect x="195.1219512195122" y="365.8536585365854" width="24.390243902439025" height="24.390243902439025" style="fill:#000000;shape-rendering:crispEdges;"/>
  <rect x="219.5121951219512" y="365.8536585365854" width="24.390243902439025" height="24.390243902439025" style="fill:#000000;shape-rendering:crispEdges;"/>
  <rect x="268.2926829268293" y="365.8536585365854" width="24.390243902439025" height="24.390243902439025" style="fill:#000000;shape-rendering:crispEdges;"/>
  <rect x="292.6829268292683" y="365.8536585365854" width="24.390243902439025" height="24.390243902439025" style="fill:#000000;shape-rendering:crispEdges;"/>
  <rect x="317.0731707317073" y="365.8536585365854" width="24.390243902439025" height="24.390243902439025" style="fill:#000000;shape-rendering:crispEdges;"/>
  <rect x="414.6341463414634" y="365.8536585365854" width="24.390243902439025" height="24.390243902439025" style="fill:#000000;shape-rendering:crispEdges;"/>
  <rect x="439.0243902439025" y="365.8536585365854" width="24.390243902439025" height="24.390243902439025" style="fill:#000000;shape-rendering:crispEdges;"/>
  <rect x="512.1951219512196" y="365.8536585365854" width="24.390243902439025" height="24.390243902439025" style="fill:#000000;shape-rendering:crispEdges;"/>
  <rect x="536.5853658536585" y="365.8536585365854" width="24.390243902439025" height="24.390243902439025" style="fill:#000000;shape-rendering:crispEdges;"/>
  <rect x="634.1463414634147" y="365.8536585365854" width="24.390243902439025" height="24.390243902439025" style="fill:#000000;shape-rendering:crispEdges;"/>
  <rect x="682.9268292682927" y="365.8536585365854" width="24.390243902439025" height="24.390243902439025" style="fill:#000000;shape-rendering:crispEdges;"/>
  <rect x="731.7073170731708" y="365.8536585365854" width="24.390243902439025" height="24.390243902439025" style="fill:#000000;shape-rendering:crispEdges;"/>
  <rect x="756.0975609756097" y="365.8536585365854" width="24.390243902439025" height="24.390243902439025" style="fill:#000000;shape-rendering:crispEdges;"/>
  <rect x="829.2682926829268" y="365.8536585365854" width="24.390243902439025" height="24.390243902439025" style="fill:#000000;shape-rendering:crispEdges;"/>
  <rect x="121.95121951219512" y="390.2439024390244" width="24.390243902439025" height="24.390243902439025" style="fill:#000000;shape-rendering:crispEdges;"/>
  <rect x="170.7317073170732" y="390.2439024390244" width="24.390243902439025" height="24.390243902439025" style="fill:#000000;shape-rendering:crispEdges;"/>
  <rect x="219.5121951219512" y="390.2439024390244" width="24.390243902439025" height="24.390243902439025" style="fill:#000000;shape-rendering:crispEdges;"/>
  <rect x="243.90243902439025" y="390.2439024390244" width="24.390243902439025" height="24.390243902439025" style="fill:#000000;shape-rendering:crispEdges;"/>
  <rect x="292.6829268292683" y="390.2439024390244" width="24.390243902439025" height="24.390243902439025" style="fill:#000000;shape-rendering:crispEdges;"/>
  <rect x="341.4634146341464" y="390.2439024390244" width="24.390243902439025" height="24.390243902439025" style="fill:#000000;shape-rendering:crispEdges;"/>
  <rect x="439.0243902439025" y="390.2439024390244" width="24.390243902439025" height="24.390243902439025" style="fill:#000000;shape-rendering:crispEdges;"/>
  <rect x="487.8048780487805" y="390.2439024390244" width="24.390243902439025" height="24.390243902439025" style="fill:#000000;shape-rendering:crispEdges;"/>
  <rect x="536.5853658536585" y="390.2439024390244" width="24.390243902439025" height="24.390243902439025" style="fill:#000000;shape-rendering:crispEdges;"/>
  <rect x="560.9756097560976" y="390.2439024390244" width="24.390243902439025" height="24.390243902439025" style="fill:#000000;shape-rendering:crispEdges;"/>
  <rect x="585.3658536585366" y="390.2439024390244" width="24.390243902439025" height="24.390243902439025" style="fill:#000000;shape-rendering:crispEdges;"/>
  <rect x="658.5365853658536" y="390.2439024390244" width="24.390243902439025" height="24.390243902439025" style="fill:#000000;shape-rendering:crispEdges;"/>
  <rect x="707.3170731707316" y="390.2439024390244" width="24.390243902439025" height="24.390243902439025" style="fill:#000000;shape-rendering:crispEdges;"/>
  <rect x="780.4878048780488" y="390.2439024390244" width="24.390243902439025" height="24.390243902439025" style="fill:#000000;shape-rendering:crispEdges;"/>
  <rect x="829.2682926829268" y="390.2439024390244" width="24.390243902439025" height="24.390243902439025" style="fill:#000000;shape-rendering:crispEdges;"/>
  <rect x="853.6585365853659" y="390.2439024390244" width="24.390243902439025" height="24.390243902439025" style="fill:#000000;shape-rendering:crispEdges;"/>
  <rect x="878.0487804878048" y="390.2439024390244" width="24.390243902439025" height="24.390243902439025" style="fill:#000000;shape-rendering:crispEdges;"/>
  <rect x="121.95121951219512" y="414.6341463414634" width="24.390243902439025" height="24.390243902439025" style="fill:#000000;shape-rendering:crispEdges;"/>
  <rect x="219.5121951219512" y="414.6341463414634" width="24.390243902439025" height="24.390243902439025" style="fill:#000000;shape-rendering:crispEdges;"/>
  <rect x="268.2926829268293" y="414.6341463414634" width="24.390243902439025" height="24.390243902439025" style="fill:#000000;shape-rendering:crispEdges;"/>
  <rect x="317.0731707317073" y="414.6341463414634" width="24.390243902439025" height="24.390243902439025" style="fill:#000000;shape-rendering:crispEdges;"/>
  <rect x="365.8536585365854" y="414.6341463414634" width="24.390243902439025" height="24.390243902439025" style="fill:#000000;shape-rendering:crispEdges;"/>
  <rect x="390.2439024390244" y="414.6341463414634" width="24.390243902439025" height="24.390243902439025" style="fill:#000000;shape-rendering:crispEdges;"/>
  <rect x="414.6341463414634" y="414.6341463414634" width="24.390243902439025" height="24.390243902439025" style="fill:#000000;shape-rendering:crispEdges;"/>
  <rect x="439.0243902439025" y="414.6341463414634" width="24.390243902439025" height="24.390243902439025" style="fill:#000000;shape-rendering:crispEdges;"/>
  <rect x="512.1951219512196" y="414.6341463414634" width="24.390243902439025" height="24.390243902439025" style="fill:#000000;shape-rendering:crispEdges;"/>
  <rect x="609.7560975609756" y="414.6341463414634" width="24.390243902439025" height="24.390243902439025" style="fill:#000000;shape-rendering:crispEdges;"/>
  <rect x="634.1463414634147" y="414.6341463414634" width="24.390243902439025" height="24.390243902439025" style="fill:#000000;shape-rendering:crispEdges;"/>
  <rect x="658.5365853658536" y="414.6341463414634" width="24.390243902439025" height="24.390243902439025" style="fill:#000000;shape-rendering:crispEdges;"/>
  <rect x="682.9268292682927" y="414.6341463414634" width="24.390243902439025" height="24.390243902439025" style="fill:#000000;shape-rendering:crispEdges;"/>
  <rect x="731.7073170731708" y="414.6341463414634" width="24.390243902439025" height="24.390243902439025" style="fill:#000000;shape-rendering:crispEdges;"/>
  <rect x="756.0975609756097" y="414.6341463414634" width="24.390243902439025" height="24.390243902439025" style="fill:#000000;shape-rendering:crispEdges;"/>
  <rect x="804.8780487804879" y="414.6341463414634" width="24.390243902439025" height="24.390243902439025" style="fill:#000000;shape-rendering:crispEdges;"/>
  <rect x="829.2682926829268" y="414.6341463414634" width="24.390243902439025" height="24.390243902439025" style="fill:#000000;shape-rendering:crispEdges;"/>
  <rect x="853.6585365853659" y="414.6341463414634" width="24.390243902439025" height="24.390243902439025" style="fill:#000000;shape-rendering:crispEdges;"/>
  <rect x="121.95121951219512" y="439.0243902439025" width="24.390243902439025" height="24.390243902439025" style="fill:#000000;shape-rendering:crispEdges;"/>
  <rect x="195.1219512195122" y="439.0243902439025" width="24.390243902439025" height="24.390243902439025" style="fill:#000000;shape-rendering:crispEdges;"/>
  <rect x="243.90243902439025" y="439.0243902439025" width="24.390243902439025" height="24.390243902439025" style="fill:#000000;shape-rendering:crispEdges;"/>
  <rect x="268.2926829268293" y="439.0243902439025" width="24.390243902439025" height="24.390243902439025" style="fill:#000000;shape-rendering:crispEdges;"/>
  <rect x="292.6829268292683" y="439.0243902439025" width="24.390243902439025" height="24.390243902439025" style="fill:#000000;shape-rendering:crispEdges;"/>
  <rect x="341.4634146341464" y="439.0243902439025" width="24.390243902439025" height="24.390243902439025" style="fill:#000000;shape-rendering:crispEdges;"/>
  <rect x="560.9756097560976" y="439.0243902439025" width="24.390243902439025" height="24.390243902439025" style="fill:#000000;shape-rendering:crispEdges;"/>
  <rect x="609.7560975609756" y="439.0243902439025" width="24.390243902439025" height="24.390243902439025" style="fill:#000000;shape-rendering:crispEdges;"/>
  <rect x="634.1463414634147" y="439.0243902439025" width="24.390243902439025" height="24.390243902439025" style="fill:#000000;shape-rendering:crispEdges;"/>
  <rect x="658.5365853658536" y="439.0243902439025" width="24.390243902439025" height="24.390243902439025" style="fill:#000000;shape-rendering:crispEdges;"/>
  <rect x="707.3170731707316" y="439.0243902439025" width="24.390243902439025" height="24.390243902439025" style="fill:#000000;shape-rendering:crispEdges;"/>
  <rect x="731.7073170731708" y="439.0243902439025" width="24.390243902439025" height="24.390243902439025" style="fill:#000000;shape-rendering:crispEdges;"/>
  <rect x="780.4878048780488" y="439.0243902439025" width="24.390243902439025" height="24.390243902439025" style="fill:#000000;shape-rendering:crispEdges;"/>
  <rect x="804.8780487804879" y="439.0243902439025" width="24.390243902439025" height="24.390243902439025" style="fill:#000000;shape-rendering:crispEdges;"/>
  <rect x="853.6585365853659" y="439.0243902439025" width="24.390243902439025" height="24.390243902439025" style="fill:#000000;shape-rendering:crispEdges;"/>
  <rect x="878.0487804878048" y="439.0243902439025" width="24.390243902439025" height="24.390243902439025" style="fill:#000000;shape-rendering:crispEdges;"/>
  <rect x="97.5609756097561" y="463.4146341463415" width="24.390243902439025" height="24.390243902439025" style="fill:#000000;shape-rendering:crispEdges;"/>
  <rect x="146.34146341463415" y="463.4146341463415" width="24.390243902439025" height="24.390243902439025" style="fill:#000000;shape-rendering:crispEdges;"/>
  <rect x="170.7317073170732" y="463.4146341463415" width="24.390243902439025" height="24.390243902439025" style="fill:#000000;shape-rendering:crispEdges;"/>
  <rect x="195.1219512195122" y="463.4146341463415" width="24.390243902439025" height="24.390243902439025" style="fill:#000000;shape-rendering:crispEdges;"/>
  <rect x="268.2926829268293" y="463.4146341463415" width="24.390243902439025" height="24.390243902439025" style="fill:#000000;shape-rendering:crispEdges;"/>
  <rect x="292.6829268292683" y="463.4146341463415" width="24.390243902439025" height="24.390243902439025" style="fill:#000000;shape-rendering:crispEdges;"/>
  <rect x="487.8048780487805" y="463.4146341463415" width="24.390243902439025" height="24.390243902439025" style="fill:#000000;shape-rendering:crispEdges;"/>
  <rect x="512.1951219512196" y="463.4146341463415" width="24.390243902439025" height="24.390243902439025" style="fill:#000000;shape-rendering:crispEdges;"/>
  <rect x="585.3658536585366" y="463.4146341463415" width="24.390243902439025" height="24.390243902439025" style="fill:#000000;shape-rendering:crispEdges;"/>
  <rect x="609.7560975609756" y="463.4146341463415" width="24.390243902439025" height="24.390243902439025" style="fill:#000000;shape-rendering:crispEdges;"/>
  <rect x="634.1463414634147" y="463.4146341463415" width="24.390243902439025" height="24.390243902439025" style="fill:#000000;shape-rendering:crispEdges;"/>
  <rect x="682.9268292682927" y="463.4146341463415" width="24.390243902439025" height="24.390243902439025" style="fill:#000000;shape-rendering:crispEdges;"/>
  <rect x="731.7073170731708" y="463.4146341463415" width="24.390243902439025" height="24.390243902439025" style="fill:#000000;shape-rendering:crispEdges;"/>
  <rect x="756.0975609756097" y="463.4146341463415" width="24.390243902439025" height="24.390243902439025" style="fill:#000000;shape-rendering:crispEdges;"/>
  <rect x="829.2682926829268" y="463.4146341463415" width="24.390243902439025" height="24.390243902439025" style="fill:#000000;shape-rendering:crispEdges;"/>
  <rect x="853.6585365853659" y="463.4146341463415" width="24.390243902439025" height="24.390243902439025" style="fill:#000000;shape-rendering:crispEdges;"/>
  <rect x="121.95121951219512" y="487.8048780487805" width="24.390243902439025" height="24.390243902439025" style="fill:#000000;shape-rendering:crispEdges;"/>
  <rect x="170.7317073170732" y="487.8048780487805" width="24.390243902439025" height="24.390243902439025" style="fill:#000000;shape-rendering:crispEdges;"/>
  <rect x="219.5121951219512" y="487.8048780487805" width="24.390243902439025" height="24.390243902439025" style="fill:#000000;shape-rendering:crispEdges;"/>
  <rect x="243.90243902439025" y="487.8048780487805" width="24.390243902439025" height="24.390243902439025" style="fill:#000000;shape-rendering:crispEdges;"/>
  <rect x="268.2926829268293" y="487.8048780487805" width="24.390243902439025" height="24.390243902439025" style="fill:#000000;shape-rendering:crispEdges;"/>
  <rect x="292.6829268292683" y="487.8048780487805" width="24.390243902439025" height="24.390243902439025" style="fill:#000000;shape-rendering:crispEdges;"/>
  <rect x="390.2439024390244" y="487.8048780487805" width="24.390243902439025" height="24.390243902439025" style="fill:#000000;shape-rendering:crispEdges;"/>
  <rect x="439.0243902439025" y="487.8048780487805" width="24.390243902439025" height="24.390243902439025" style="fill:#000000;shape-rendering:crispEdges;"/>
  <rect x="463.4146341463415" y="487.8048780487805" width="24.390243902439025" height="24.390243902439025" style="fill:#000000;shape-rendering:crispEdges;"/>
  <rect x="560.9756097560976" y="487.8048780487805" width="24.390243902439025" height="24.390243902439025" style="fill:#000000;shape-rendering:crispEdges;"/>
  <rect x="634.1463414634147" y="487.8048780487805" width="24.390243902439025" height="24.390243902439025" style="fill:#000000;shape-rendering:crispEdges;"/>
  <rect x="658.5365853658536" y="487.8048780487805" width="24.390243902439025" height="24.390243902439025" style="fill:#000000;shape-rendering:crispEdges;"/>
  <rect x="707.3170731707316" y="487.8048780487805" width="24.390243902439025" height="24.390243902439025" style="fill:#000000;shape-rendering:crispEdges;"/>
  <rect x="780.4878048780488" y="487.8048780487805" width="24.390243902439025" height="24.390243902439025" style="fill:#000000;shape-rendering:crispEdges;"/>
  <rect x="804.8780487804879" y="487.8048780487805" width="24.390243902439025" height="24.390243902439025" style="fill:#000000;shape-rendering:crispEdges;"/>
  <rect x="829.2682926829268" y="487.8048780487805" width="24.390243902439025" height="24.390243902439025" style="fill:#000000;shape-rendering:crispEdges;"/>
  <rect x="878.0487804878048" y="487.8048780487805" width="24.390243902439025" height="24.390243902439025" style="fill:#000000;shape-rendering:crispEdges;"/>
  <rect x="97.5609756097561" y="512.1951219512196" width="24.390243902439025" height="24.390243902439025" style="fill:#000000;shape-rendering:crispEdges;"/>
  <rect x="121.95121951219512" y="512.1951219512196" width="24.390243902439025" height="24.390243902439025" style="fill:#000000;shape-rendering:crispEdges;"/>
  <rect x="170.7317073170732" y="512.1951219512196" width="24.390243902439025" height="24.390243902439025" style="fill:#000000;shape-rendering:crispEdges;"/>
  <rect x="195.1219512195122" y="512.1951219512196" width="24.390243902439025" height="24.390243902439025" style="fill:#000000;shape-rendering:crispEdges;"/>
  <rect x="219.5121951219512" y="512.1951219512196" width="24.390243902439025" height="24.390243902439025" style="fill:#000000;shape-rendering:crispEdges;"/>
  <rect x="268.2926829268293" y="512.1951219512196" width="24.390243902439025" height="24.390243902439025" style="fill:#000000;shape-rendering:crispEdges;"/>
  <rect x="292.6829268292683" y="512.1951219512196" width="24.390243902439025" height="24.390243902439025" style="fill:#000000;shape-rendering:crispEdges;"/>
  <rect x="341.4634146341464" y="512.1951219512196" width="24.390243902439025" height="24.390243902439025" style="fill:#000000;shape-rendering:crispEdges;"/>
  <rect x="365.8536585365854" y="512.1951219512196" width="24.390243902439025" height="24.390243902439025" style="fill:#000000;shape-rendering:crispEdges;"/>
  <rect x="463.4146341463415" y="512.1951219512196" width="24.390243902439025" height="24.390243902439025" style="fill:#000000;shape-rendering:crispEdges;"/>
  <rect x="487.8048780487805" y="512.1951219512196" width="24.390243902439025" height="24.390243902439025" style="fill:#000000;shape-rendering:crispEdges;"/>
  <rect x="585.3658536585366" y="512.1951219512196" width="24.390243902439025" height="24.390243902439025" style="fill:#000000;shape-rendering:crispEdges;"/>
  <rect x="634.1463414634147" y="512.1951219512196" width="24.390243902439025" height="24.390243902439025" style="fill:#000000;shape-rendering:crispEdges;"/>
  <rect x="707.3170731707316" y="512.1951219512196" width="24.390243902439025" height="24.390243902439025" style="fill:#000000;shape-rendering:crispEdges;"/>
  <rect x="829.2682926829268" y="512.1951219512196" width="24.390243902439025" height="24.390243902439025" style="fill:#000000;shape-rendering:crispEdges;"/>
  <rect x="878.0487804878048" y="512.1951219512196" width="24.390243902439025" height="24.390243902439025" style="fill:#000000;shape-rendering:crispEdges;"/>
  <rect x="97.5609756097561" y="536.5853658536585" width="24.390243902439025" height="24.390243902439025" style="fill:#000000;shape-rendering:crispEdges;"/>
  <rect x="170.7317073170732" y="536.5853658536585" width="24.390243902439025" height="24.390243902439025" style="fill:#000000;shape-rendering:crispEdges;"/>
  <rect x="195.1219512195122" y="536.5853658536585" width="24.390243902439025" height="24.390243902439025" style="fill:#000000;shape-rendering:crispEdges;"/>
  <rect x="243.90243902439025" y="536.5853658536585" width="24.390243902439025" height="24.390243902439025" style="fill:#000000;shape-rendering:crispEdges;"/>
  <rect x="317.0731707317073" y="536.5853658536585" width="24.390243902439025" height="24.390243902439025" style="fill:#000000;shape-rendering:crispEdges;"/>
  <rect x="365.8536585365854" y="536.5853658536585" width="24.390243902439025" height="24.390243902439025" style="fill:#000000;shape-rendering:crispEdges;"/>
  <rect x="390.2439024390244" y="536.5853658536585" width="24.390243902439025" height="24.390243902439025" style="fill:#000000;shape-rendering:crispEdges;"/>
  <rect x="439.0243902439025" y="536.5853658536585" width="24.390243902439025" height="24.390243902439025" style="fill:#000000;shape-rendering:crispEdges;"/>
  <rect x="487.8048780487805" y="536.5853658536585" width="24.390243902439025" height="24.390243902439025" style="fill:#000000;shape-rendering:crispEdges;"/>
  <rect x="536.5853658536585" y="536.5853658536585" width="24.390243902439025" height="24.390243902439025" style="fill:#000000;shape-rendering:crispEdges;"/>
  <rect x="560.9756097560976" y="536.5853658536585" width="24.390243902439025" height="24.390243902439025" style="fill:#000000;shape-rendering:crispEdges;"/>
  <rect x="682.9268292682927" y="536.5853658536585" width="24.390243902439025" height="24.390243902439025" style="fill:#000000;shape-rendering:crispEdges;"/>
  <rect x="707.3170731707316" y="536.5853658536585" width="24.390243902439025" height="24.390243902439025" style="fill:#000000;shape-rendering:crispEdges;"/>
  <rect x="829.2682926829268" y="536.5853658536585" width="24.390243902439025" height="24.390243902439025" style="fill:#000000;shape-rendering:crispEdges;"/>
  <rect x="853.6585365853659" y="536.5853658536585" width="24.390243902439025" height="24.390243902439025" style="fill:#000000;shape-rendering:crispEdges;"/>
  <rect x="878.0487804878048" y="536.5853658536585" width="24.390243902439025" height="24.390243902439025" style="fill:#000000;shape-rendering:crispEdges;"/>
  <rect x="121.95121951219512" y="560.9756097560976" width="24.390243902439025" height="24.390243902439025" style="fill:#000000;shape-rendering:crispEdges;"/>
  <rect x="195.1219512195122" y="560.9756097560976" width="24.390243902439025" height="24.390243902439025" style="fill:#000000;shape-rendering:crispEdges;"/>
  <rect x="219.5121951219512" y="560.9756097560976" width="24.390243902439025" height="24.390243902439025" style="fill:#000000;shape-rendering:crispEdges;"/>
  <rect x="292.6829268292683" y="560.9756097560976" width="24.390243902439025" height="24.390243902439025" style="fill:#000000;shape-rendering:crispEdges;"/>
  <rect x="390.2439024390244" y="560.9756097560976" width="24.390243902439025" height="24.390243902439025" style="fill:#000000;shape-rendering:crispEdges;"/>
  <rect x="414.6341463414634" y="560.9756097560976" width="24.390243902439025" height="24.390243902439025" style="fill:#000000;shape-rendering:crispEdges;"/>
  <rect x="439.0243902439025" y="560.9756097560976" width="24.390243902439025" height="24.390243902439025" style="fill:#000000;shape-rendering:crispEdges;"/>
  <rect x="463.4146341463415" y="560.9756097560976" width="24.390243902439025" height="24.390243902439025" style="fill:#000000;shape-rendering:crispEdges;"/>
  <rect x="585.3658536585366" y="560.9756097560976" width="24.390243902439025" height="24.390243902439025" style="fill:#000000;shape-rendering:crispEdges;"/>
  <rect x="609.7560975609756" y="560.9756097560976" width="24.390243902439025" height="24.390243902439025" style="fill:#000000;shape-rendering:crispEdges;"/>
  <rect x="682.9268292682927" y="560.9756097560976" width="24.390243902439025" height="24.390243902439025" style="fill:#000000;shape-rendering:crispEdges;"/>
  <rect x="756.0975609756097" y="560.9756097560976" width="24.390243902439025" height="24.390243902439025" style="fill:#000000;shape-rendering:crispEdges;"/>
  <rect x="780.4878048780488" y="560.9756097560976" width="24.390243902439025" height="24.390243902439025" style="fill:#000000;shape-rendering:crispEdges;"/>
  <rect x="804.8780487804879" y="560.9756097560976" width="24.390243902439025" height="24.390243902439025" style="fill:#000000;shape-rendering:crispEdges;"/>
  <rect x="829.2682926829268" y="560.9756097560976" width="24.390243902439025" height="24.390243902439025" style="fill:#000000;shape-rendering:crispEdges;"/>
  <rect x="853.6585365853659" y="560.9756097560976" width="24.390243902439025" height="24.390243902439025" style="fill:#000000;shape-rendering:crispEdges;"/>
  <rect x="97.5609756097561" y="585.3658536585366" width="24.390243902439025" height="24.390243902439025" style="fill:#000000;shape-rendering:crispEdges;"/>
  <rect x="121.95121951219512" y="585.3658536585366" width="24.390243902439025" height="24.390243902439025" style="fill:#000000;shape-rendering:crispEdges;"/>
  <rect x="146.34146341463415" y="585.3658536585366" width="24.390243902439025" height="24.390243902439025" style="fill:#000000;shape-rendering:crispEdges;"/>
  <rect x="170.7317073170732" y="585.3658536585366" width="24.390243902439025" height="24.390243902439025" style="fill:#000000;shape-rendering:crispEdges;"/>
  <rect x="195.1219512195122" y="585.3658536585366" width="24.390243902439025" height="24.390243902439025" style="fill:#000000;shape-rendering:crispEdges;"/>
  <rect x="243.90243902439025" y="585.3658536585366" width="24.390243902439025" height="24.390243902439025" style="fill:#000000;shape-rendering:crispEdges;"/>
  <rect x="292.6829268292683" y="585.3658536585366" width="24.390243902439025" height="24.390243902439025" style="fill:#000000;shape-rendering:crispEdges;"/>
  <rect x="341.4634146341464" y="585.3658536585366" width="24.390243902439025" height="24.390243902439025" style="fill:#000000;shape-rendering:crispEdges;"/>
  <rect x="390.2439024390244" y="585.3658536585366" width="24.390243902439025" height="24.390243902439025" style="fill:#000000;shape-rendering:crispEdges;"/>
  <rect x="463.4146341463415" y="585.3658536585366" width="24.390243902439025" height="24.390243902439025" style="fill:#000000;shape-rendering:crispEdges;"/>
  <rect x="487.8048780487805" y="585.3658536585366" width="24.390243902439025" height="24.390243902439025" style="fill:#000000;shape-rendering:crispEdges;"/>
  <rect x="560.9756097560976" y="585.3658536585366" width="24.390243902439025" height="24.390243902439025" style="fill:#000000;shape-rendering:crispEdges;"/>
  <rect x="609.7560975609756" y="585.3658536585366" width="24.390243902439025" height="24.390243902439025" style="fill:#000000;shape-rendering:crispEdges;"/>
  <rect x="634.1463414634147" y="585.3658536585366" width="24.390243902439025" height="24.390243902439025" style="fill:#000000;shape-rendering:crispEdges;"/>
  <rect x="731.7073170731708" y="585.3658536585366" width="24.390243902439025" height="24.390243902439025" style="fill:#000000;shape-rendering:crispEdges;"/>
  <rect x="780.4878048780488" y="585.3658536585366" width="24.390243902439025" height="24.390243902439025" style="fill:#000000;shape-rendering:crispEdges;"/>
  <rect x="853.6585365853659" y="585.3658536585366" width="24.390243902439025" height="24.390243902439025" style="fill:#000000;shape-rendering:crispEdges;"/>
  <rect x="97.5609756097561" y="609.7560975609756" width="24.390243902439025" height="24.390243902439025" style="fill:#000000;shape-rendering:crispEdges;"/>
  <rect x="121.95121951219512" y="609.7560975609756" width="24.390243902439025" height="24.390243902439025" style="fill:#000000;shape-rendering:crispEdges;"/>
  <rect x="170.7317073170732" y="609.7560975609756" width="24.390243902439025" height="24.390243902439025" style="fill:#000000;shape-rendering:crispEdges;"/>
  <rect x="219.5121951219512" y="609.7560975609756" width="24.390243902439025" height="24.390243902439025" style="fill:#000000;shape-rendering:crispEdges;"/>
  <rect x="268.2926829268293" y="609.7560975609756" width="24.390243902439025" height="24.390243902439025" style="fill:#000000;shape-rendering:crispEdges;"/>
  <rect x="292.6829268292683" y="609.7560975609756" width="24.390243902439025" height="24.390243902439025" style="fill:#000000;shape-rendering:crispEdges;"/>
  <rect x="341.4634146341464" y="609.7560975609756" width="24.390243902439025" height="24.390243902439025" style="fill:#000000;shape-rendering:crispEdges;"/>
  <rect x="365.8536585365854" y="609.7560975609756" width="24.390243902439025" height="24.390243902439025" style="fill:#000000;shape-rendering:crispEdges;"/>
  <rect x="439.0243902439025" y="609.7560975609756" width="24.390243902439025" height="24.390243902439025" style="fill:#000000;shape-rendering:crispEdges;"/>
  <rect x="463.4146341463415" y="609.7560975609756" width="24.390243902439025" height="24.390243902439025" style="fill:#000000;shape-rendering:crispEdges;"/>
  <rect x="487.8048780487805" y="609.7560975609756" width="24.390243902439025" height="24.390243902439025" style="fill:#000000;shape-rendering:crispEdges;"/>
  <rect x="512.1951219512196" y="609.7560975609756" width="24.390243902439025" height="24.390243902439025" style="fill:#000000;shape-rendering:crispEdges;"/>
  <rect x="634.1463414634147" y="609.7560975609756" width="24.390243902439025" height="24.390243902439025" style="fill:#000000;shape-rendering:crispEdges;"/>
  <rect x="658.5365853658536" y="609.7560975609756" width="24.390243902439025" height="24.390243902439025" style="fill:#000000;shape-rendering:crispEdges;"/>
  <rect x="682.9268292682927" y="609.7560975609756" width="24.390243902439025" height="24.390243902439025" style="fill:#000000;shape-rendering:crispEdges;"/>
  <rect x="731.7073170731708" y="609.7560975609756" width="24.390243902439025" height="24.390243902439025" style="fill:#000000;shape-rendering:crispEdges;"/>
  <rect x="756.0975609756097" y="609.7560975609756" width="24.390243902439025" height="24.390243902439025" style="fill:#000000;shape-rendering:crispEdges;"/>
  <rect x="853.6585365853659" y="609.7560975609756" width="24.390243902439025" height="24.390243902439025" style="fill:#000000;shape-rendering:crispEdges;"/>
  <rect x="878.0487804878048" y="609.7560975609756" width="24.390243902439025" height="24.390243902439025" style="fill:#000000;shape-rendering:crispEdges;"/>
  <rect x="97.5609756097561" y="634.1463414634147" width="24.390243902439025" height="24.390243902439025" style="fill:#000000;shape-rendering:crispEdges;"/>
  <rect x="121.95121951219512" y="634.1463414634147" width="24.390243902439025" height="24.390243902439025" style="fill:#000000;shape-rendering:crispEdges;"/>
  <rect x="146.34146341463415" y="634.1463414634147" width="24.390243902439025" height="24.390243902439025" style="fill:#000000;shape-rendering:crispEdges;"/>
  <rect x="243.90243902439025" y="634.1463414634147" width="24.390243902439025" height="24.390243902439025" style="fill:#000000;shape-rendering:crispEdges;"/>
  <rect x="268.2926829268293" y="634.1463414634147" width="24.390243902439025" height="24.390243902439025" style="fill:#000000;shape-rendering:crispEdges;"/>
  <rect x="292.6829268292683" y="634.1463414634147" width="24.390243902439025" height="24.390243902439025" style="fill:#000000;shape-rendering:crispEdges;"/>
  <rect x="341.4634146341464" y="634.1463414634147" width="24.390243902439025" height="24.390243902439025" style="fill:#000000;shape-rendering:crispEdges;"/>
  <rect x="414.6341463414634" y="634.1463414634147" width="24.390243902439025" height="24.390243902439025" style="fill:#000000;shape-rendering:crispEdges;"/>
  <rect x="439.0243902439025" y="634.1463414634147" width="24.390243902439025" height="24.390243902439025" style="fill:#000000;shape-rendering:crispEdges;"/>
  <rect x="487.8048780487805" y="634.1463414634147" width="24.390243902439025" height="24.390243902439025" style="fill:#000000;shape-rendering:crispEdges;"/>
  <rect x="512.1951219512196" y="634.1463414634147" width="24.390243902439025" height="24.390243902439025" style="fill:#000000;shape-rendering:crispEdges;"/>
  <rect x="560.9756097560976" y="634.1463414634147" width="24.390243902439025" height="24.390243902439025" style="fill:#000000;shape-rendering:crispEdges;"/>
  <rect x="585.3658536585366" y="634.1463414634147" width="24.390243902439025" height="24.390243902439025" style="fill:#000000;shape-rendering:crispEdges;"/>
  <rect x="682.9268292682927" y="634.1463414634147" width="24.390243902439025" height="24.390243902439025" style="fill:#000000;shape-rendering:crispEdges;"/>
  <rect x="731.7073170731708" y="634.1463414634147" width="24.390243902439025" height="24.390243902439025" style="fill:#000000;shape-rendering:crispEdges;"/>
  <rect x="804.8780487804879" y="634.1463414634147" width="24.390243902439025" height="24.390243902439025" style="fill:#000000;shape-rendering:crispEdges;"/>
  <rect x="878.0487804878048" y="634.1463414634147" width="24.390243902439025" height="24.390243902439025" style="fill:#000000;shape-rendering:crispEdges;"/>
  <rect x="97.5609756097561" y="658.5365853658536" width="24.390243902439025" height="24.390243902439025" style="fill:#000000;shape-rendering:crispEdges;"/>
  <rect x="268.2926829268293" y="658.5365853658536" width="24.390243902439025" height="24.390243902439025" style="fill:#000000;shape-rendering:crispEdges;"/>
  <rect x="317.0731707317073" y="658.5365853658536" width="24.390243902439025" height="24.390243902439025" style="fill:#000000;shape-rendering:crispEdges;"/>
  <rect x="341.4634146341464" y="658.5365853658536" width="24.390243902439025" height="24.390243902439025" style="fill:#000000;shape-rendering:crispEdges;"/>
  <rect x="365.8536585365854" y="658.5365853658536" width="24.390243902439025" height="24.390243902439025" style="fill:#000000;shape-rendering:crispEdges;"/>
  <rect x="487.8048780487805" y="658.5365853658536" width="24.390243902439025" height="24.390243902439025" style="fill:#000000;shape-rendering:crispEdges;"/>
  <rect x="512.1951219512196" y="658.5365853658536" width="24.390243902439025" height="24.390243902439025" style="fill:#000000;shape-rendering:crispEdges;"/>
  <rect x="536.5853658536585" y="658.5365853658536" width="24.390243902439025" height="24.390243902439025" style="fill:#000000;shape-rendering:crispEdges;"/>
  <rect x="560.9756097560976" y="658.5365853658536" width="24.390243902439025" height="24.390243902439025" style="fill:#000000;shape-rendering:crispEdges;"/>
  <rect x="634.1463414634147" y="658.5365853658536" width="24.390243902439025" height="24.390243902439025" style="fill:#000000;shape-rendering:crispEdges;"/>
  <rect x="682.9268292682927" y="658.5365853658536" width="24.390243902439025" height="24.390243902439025" style="fill:#000000;shape-rendering:crispEdges;"/>
  <rect x="707.3170731707316" y="658.5365853658536" width="24.390243902439025" height="24.390243902439025" style="fill:#000000;shape-rendering:crispEdges;"/>
  <rect x="804.8780487804879" y="658.5365853658536" width="24.390243902439025" height="24.390243902439025" style="fill:#000000;shape-rendering:crispEdges;"/>
  <rect x="829.2682926829268" y="658.5365853658536" width="24.390243902439025" height="24.390243902439025" style="fill:#000000;shape-rendering:crispEdges;"/>
  <rect x="853.6585365853659" y="658.5365853658536" width="24.390243902439025" height="24.390243902439025" style="fill:#000000;shape-rendering:crispEdges;"/>
  <rect x="121.95121951219512" y="682.9268292682927" width="24.390243902439025" height="24.390243902439025" style="fill:#000000;shape-rendering:crispEdges;"/>
  <rect x="146.34146341463415" y="682.9268292682927" width="24.390243902439025" height="24.390243902439025" style="fill:#000000;shape-rendering:crispEdges;"/>
  <rect x="170.7317073170732" y="682.9268292682927" width="24.390243902439025" height="24.390243902439025" style="fill:#000000;shape-rendering:crispEdges;"/>
  <rect x="195.1219512195122" y="682.9268292682927" width="24.390243902439025" height="24.390243902439025" style="fill:#000000;shape-rendering:crispEdges;"/>
  <rect x="243.90243902439025" y="682.9268292682927" width="24.390243902439025" height="24.390243902439025" style="fill:#000000;shape-rendering:crispEdges;"/>
  <rect x="292.6829268292683" y="682.9268292682927" width="24.390243902439025" height="24.390243902439025" style="fill:#000000;shape-rendering:crispEdges;"/>
  <rect x="341.4634146341464" y="682.9268292682927" width="24.390243902439025" height="24.390243902439025" style="fill:#000000;shape-rendering:crispEdges;"/>
  <rect x="365.8536585365854" y="682.9268292682927" width="24.390243902439025" height="24.390243902439025" style="fill:#000000;shape-rendering:crispEdges;"/>
  <rect x="390.2439024390244" y="682.9268292682927" width="24.390243902439025" height="24.390243902439025" style="fill:#000000;shape-rendering:crispEdges;"/>
  <rect x="463.4146341463415" y="682.9268292682927" width="24.390243902439025" height="24.390243902439025" style="fill:#000000;shape-rendering:crispEdges;"/>
  <rect x="487.8048780487805" y="682.9268292682927" width="24.390243902439025" height="24.390243902439025" style="fill:#000000;shape-rendering:crispEdges;"/>
  <rect x="585.3658536585366" y="682.9268292682927" width="24.390243902439025" height="24.390243902439025" style="fill:#000000;shape-rendering:crispEdges;"/>
  <rect x="609.7560975609756" y="682.9268292682927" width="24.390243902439025" height="24.390243902439025" style="fill:#000000;shape-rendering:crispEdges;"/>
  <rect x="634.1463414634147" y="682.9268292682927" width="24.390243902439025" height="24.390243902439025" style="fill:#000000;shape-rendering:crispEdges;"/>
  <rect x="658.5365853658536" y="682.9268292682927" width="24.390243902439025" height="24.390243902439025" style="fill:#000000;shape-rendering:crispEdges;"/>
  <rect x="682.9268292682927" y="682.9268292682927" width="24.390243902439025" height="24.390243902439025" style="fill:#000000;shape-rendering:crispEdges;"/>
  <rect x="707.3170731707316" y="682.9268292682927" width="24.390243902439025" height="24.390243902439025" style="fill:#000000;shape-rendering:crispEdges;"/>
  <rect x="731.7073170731708" y="682.9268292682927" width="24.390243902439025" height="24.390243902439025" style="fill:#000000;shape-rendering:crispEdges;"/>
  <rect x="756.0975609756097" y="682.9268292682927" width="24.390243902439025" height="24.390243902439025" style="fill:#000000;shape-rendering:crispEdges;"/>
  <rect x="780.4878048780488" y="682.9268292682927" width="24.390243902439025" height="24.390243902439025" style="fill:#000000;shape-rendering:crispEdges;"/>
  <rect x="853.6585365853659" y="682.9268292682927" width="24.390243902439025" height="24.390243902439025" style="fill:#000000;shape-rendering:crispEdges;"/>
  <rect x="878.0487804878048" y="682.9268292682927" width="24.390243902439025" height="24.390243902439025" style="fill:#000000;shape-rendering:crispEdges;"/>
  <rect x="292.6829268292683" y="707.3170731707316" width="24.390243902439025" height="24.390243902439025" style="fill:#000000;shape-rendering:crispEdges;"/>
  <rect x="317.0731707317073" y="707.3170731707316" width="24.390243902439025" height="24.390243902439025" style="fill:#000000;shape-rendering:crispEdges;"/>
  <rect x="365.8536585365854" y="707.3170731707316" width="24.390243902439025" height="24.390243902439025" style="fill:#000000;shape-rendering:crispEdges;"/>
  <rect x="414.6341463414634" y="707.3170731707316" width="24.390243902439025" height="24.390243902439025" style="fill:#000000;shape-rendering:crispEdges;"/>
  <rect x="439.0243902439025" y="707.3170731707316" width="24.390243902439025" height="24.390243902439025" style="fill:#000000;shape-rendering:crispEdges;"/>
  <rect x="463.4146341463415" y="707.3170731707316" width="24.390243902439025" height="24.390243902439025" style="fill:#000000;shape-rendering:crispEdges;"/>
  <rect x="512.1951219512196" y="707.3170731707316" width="24.390243902439025" height="24.390243902439025" style="fill:#000000;shape-rendering:crispEdges;"/>
  <rect x="536.5853658536585" y="707.3170731707316" width="24.390243902439025" height="24.390243902439025" style="fill:#000000;shape-rendering:crispEdges;"/>
  <rect x="560.9756097560976" y="707.3170731707316" width="24.390243902439025" height="24.390243902439025" style="fill:#000000;shape-rendering:crispEdges;"/>
  <rect x="634.1463414634147" y="707.3170731707316" width="24.390243902439025" height="24.390243902439025" style="fill:#000000;shape-rendering:crispEdges;"/>
  <rect x="658.5365853658536" y="707.3170731707316" width="24.390243902439025" height="24.390243902439025" style="fill:#000000;shape-rendering:crispEdges;"/>
  <rect x="682.9268292682927" y="707.3170731707316" width="24.390243902439025" height="24.390243902439025" style="fill:#000000;shape-rendering:crispEdges;"/>
  <rect x="780.4878048780488" y="707.3170731707316" width="24.390243902439025" height="24.390243902439025" style="fill:#000000;shape-rendering:crispEdges;"/>
  <rect x="829.2682926829268" y="707.3170731707316" width="24.390243902439025" height="24.390243902439025" style="fill:#000000;shape-rendering:crispEdges;"/>
  <rect x="878.0487804878048" y="707.3170731707316" width="24.390243902439025" height="24.390243902439025" style="fill:#000000;shape-rendering:crispEdges;"/>
  <rect x="97.5609756097561" y="731.7073170731708" width="24.390243902439025" height="24.390243902439025" style="fill:#000000;shape-rendering:crispEdges;"/>
  <rect x="121.95121951219512" y="731.7073170731708" width="24.390243902439025" height="24.390243902439025" style="fill:#000000;shape-rendering:crispEdges;"/>
  <rect x="146.34146341463415" y="731.7073170731708" width="24.390243902439025" height="24.390243902439025" style="fill:#000000;shape-rendering:crispEdges;"/>
  <rect x="170.7317073170732" y="731.7073170731708" width="24.390243902439025" height="24.390243902439025" style="fill:#000000;shape-rendering:crispEdges;"/>
  <rect x="195.1219512195122" y="731.7073170731708" width="24.390243902439025" height="24.390243902439025" style="fill:#000000;shape-rendering:crispEdges;"/>
  <rect x="219.5121951219512" y="731.7073170731708" width="24.390243902439025" height="24.390243902439025" style="fill:#000000;shape-rendering:crispEdges;"/>
  <rect x="243.90243902439025" y="731.7073170731708" width="24.390243902439025" height="24.390243902439025" style="fill:#000000;shape-rendering:crispEdges;"/>
  <rect x="341.4634146341464" y="731.7073170731708" width="24.390243902439025" height="24.390243902439025" style="fill:#000000;shape-rendering:crispEdges;"/>
  <rect x="390.2439024390244" y="731.7073170731708" width="24.390243902439025" height="24.390243902439025" style="fill:#000000;shape-rendering:crispEdges;"/>
  <rect x="439.0243902439025" y="731.7073170731708" width="24.390243902439025" height="24.390243902439025" style="fill:#000000;shape-rendering:crispEdges;"/>
  <rect x="463.4146341463415" y="731.7073170731708" width="24.390243902439025" height="24.390243902439025" style="fill:#000000;shape-rendering:crispEdges;"/>
  <rect x="487.8048780487805" y="731.7073170731708" width="24.390243902439025" height="24.390243902439025" style="fill:#000000;shape-rendering:crispEdges;"/>
  <rect x="585.3658536585366" y="731.7073170731708" width="24.390243902439025" height="24.390243902439025" style="fill:#000000;shape-rendering:crispEdges;"/>
  <rect x="682.9268292682927" y="731.7073170731708" width="24.390243902439025" height="24.390243902439025" style="fill:#000000;shape-rendering:crispEdges;"/>
  <rect x="731.7073170731708" y="731.7073170731708" width="24.390243902439025" height="24.390243902439025" style="fill:#000000;shape-rendering:crispEdges;"/>
  <rect x="780.4878048780488" y="731.7073170731708" width="24.390243902439025" height="24.390243902439025" style="fill:#000000;shape-rendering:crispEdges;"/>
  <rect x="804.8780487804879" y="731.7073170731708" width="24.390243902439025" height="24.390243902439025" style="fill:#000000;shape-rendering:crispEdges;"/>
  <rect x="829.2682926829268" y="731.7073170731708" width="24.390243902439025" height="24.390243902439025" style="fill:#000000;shape-rendering:crispEdges;"/>
  <rect x="97.5609756097561" y="756.0975609756097" width="24.390243902439025" height="24.390243902439025" style="fill:#000000;shape-rendering:crispEdges;"/>
  <rect x="243.90243902439025" y="756.0975609756097" width="24.390243902439025" height="24.390243902439025" style="fill:#000000;shape-rendering:crispEdges;"/>
  <rect x="292.6829268292683" y="756.0975609756097" width="24.390243902439025" height="24.390243902439025" style="fill:#000000;shape-rendering:crispEdges;"/>
  <rect x="414.6341463414634" y="756.0975609756097" width="24.390243902439025" height="24.390243902439025" style="fill:#000000;shape-rendering:crispEdges;"/>
  <rect x="439.0243902439025" y="756.0975609756097" width="24.390243902439025" height="24.390243902439025" style="fill:#000000;shape-rendering:crispEdges;"/>
  <rect x="536.5853658536585" y="756.0975609756097" width="24.390243902439025" height="24.390243902439025" style="fill:#000000;shape-rendering:crispEdges;"/>
  <rect x="560.9756097560976" y="756.0975609756097" width="24.390243902439025" height="24.390243902439025" style="fill:#000000;shape-rendering:crispEdges;"/>
  <rect x="609.7560975609756" y="756.0975609756097" width="24.390243902439025" height="24.390243902439025" style="fill:#000000;shape-rendering:crispEdges;"/>
  <rect x="658.5365853658536" y="756.0975609756097" width="24.390243902439025" height="24.390243902439025" style="fill:#000000;shape-rendering:crispEdges;"/>
  <rect x="682.9268292682927" y="756.0975609756097" width="24.390243902439025" height="24.390243902439025" style="fill:#000000;shape-rendering:crispEdges;"/>
  <rect x="780.4878048780488" y="756.0975609756097" width="24.390243902439025" height="24.390243902439025" style="fill:#000000;shape-rendering:crispEdges;"/>
  <rect x="804.8780487804879" y="756.0975609756097" width="24.390243902439025" height="24.390243902439025" style="fill:#000000;shape-rendering:crispEdges;"/>
  <rect x="829.2682926829268" y="756.0975609756097" width="24.390243902439025" height="24.390243902439025" style="fill:#000000;shape-rendering:crispEdges;"/>
  <rect x="97.5609756097561" y="780.4878048780488" width="24.390243902439025" height="24.390243902439025" style="fill:#000000;shape-rendering:crispEdges;"/>
  <rect x="146.34146341463415" y="780.4878048780488" width="24.390243902439025" height="24.390243902439025" style="fill:#000000;shape-rendering:crispEdges;"/>
  <rect x="170.7317073170732" y="780.4878048780488" width="24.390243902439025" height="24.390243902439025" style="fill:#000000;shape-rendering:crispEdges;"/>
  <rect x="195.1219512195122" y="780.4878048780488" width="24.390243902439025" height="24.390243902439025" style="fill:#000000;shape-rendering:crispEdges;"/>
  <rect x="243.90243902439025" y="780.4878048780488" width="24.390243902439025" height="24.390243902439025" style="fill:#000000;shape-rendering:crispEdges;"/>
  <rect x="292.6829268292683" y="780.4878048780488" width="24.390243902439025" height="24.390243902439025" style="fill:#000000;shape-rendering:crispEdges;"/>
  <rect x="390.2439024390244" y="780.4878048780488" width="24.390243902439025" height="24.390243902439025" style="fill:#000000;shape-rendering:crispEdges;"/>
  <rect x="463.4146341463415" y="780.4878048780488" width="24.390243902439025" height="24.390243902439025" style="fill:#000000;shape-rendering:crispEdges;"/>
  <rect x="487.8048780487805" y="780.4878048780488" width="24.390243902439025" height="24.390243902439025" style="fill:#000000;shape-rendering:crispEdges;"/>
  <rect x="585.3658536585366" y="780.4878048780488" width="24.390243902439025" height="24.390243902439025" style="fill:#000000;shape-rendering:crispEdges;"/>
  <rect x="634.1463414634147" y="780.4878048780488" width="24.390243902439025" height="24.390243902439025" style="fill:#000000;shape-rendering:crispEdges;"/>
  <rect x="682.9268292682927" y="780.4878048780488" width="24.390243902439025" height="24.390243902439025" style="fill:#000000;shape-rendering:crispEdges;"/>
  <rect x="707.3170731707316" y="780.4878048780488" width="24.390243902439025" height="24.390243902439025" style="fill:#000000;shape-rendering:crispEdges;"/>
  <rect x="731.7073170731708" y="780.4878048780488" width="24.390243902439025" height="24.390243902439025" style="fill:#000000;shape-rendering:crispEdges;"/>
  <rect x="756.0975609756097" y="780.4878048780488" width="24.390243902439025" height="24.390243902439025" style="fill:#000000;shape-rendering:crispEdges;"/>
  <rect x="780.4878048780488" y="780.4878048780488" width="24.390243902439025" height="24.390243902439025" style="fill:#000000;shape-rendering:crispEdges;"/>
  <rect x="804.8780487804879" y="780.4878048780488" width="24.390243902439025" height="24.390243902439025" style="fill:#000000;shape-rendering:crispEdges;"/>
  <rect x="829.2682926829268" y="780.4878048780488" width="24.390243902439025" height="24.390243902439025" style="fill:#000000;shape-rendering:crispEdges;"/>
  <rect x="97.5609756097561" y="804.8780487804879" width="24.390243902439025" height="24.390243902439025" style="fill:#000000;shape-rendering:crispEdges;"/>
  <rect x="146.34146341463415" y="804.8780487804879" width="24.390243902439025" height="24.390243902439025" style="fill:#000000;shape-rendering:crispEdges;"/>
  <rect x="170.7317073170732" y="804.8780487804879" width="24.390243902439025" height="24.390243902439025" style="fill:#000000;shape-rendering:crispEdges;"/>
  <rect x="195.1219512195122" y="804.8780487804879" width="24.390243902439025" height="24.390243902439025" style="fill:#000000;shape-rendering:crispEdges;"/>
  <rect x="243.90243902439025" y="804.8780487804879" width="24.390243902439025" height="24.390243902439025" style="fill:#000000;shape-rendering:crispEdges;"/>
  <rect x="317.0731707317073" y="804.8780487804879" width="24.390243902439025" height="24.390243902439025" style="fill:#000000;shape-rendering:crispEdges;"/>
  <rect x="341.4634146341464" y="804.8780487804879" width="24.390243902439025" height="24.390243902439025" style="fill:#000000;shape-rendering:crispEdges;"/>
  <rect x="390.2439024390244" y="804.8780487804879" width="24.390243902439025" height="24.390243902439025" style="fill:#000000;shape-rendering:crispEdges;"/>
  <rect x="414.6341463414634" y="804.8780487804879" width="24.390243902439025" height="24.390243902439025" style="fill:#000000;shape-rendering:crispEdges;"/>
  <rect x="439.0243902439025" y="804.8780487804879" width="24.390243902439025" height="24.390243902439025" style="fill:#000000;shape-rendering:crispEdges;"/>
  <rect x="512.1951219512196" y="804.8780487804879" width="24.390243902439025" height="24.390243902439025" style="fill:#000000;shape-rendering:crispEdges;"/>
  <rect x="536.5853658536585" y="804.8780487804879" width="24.390243902439025" height="24.390243902439025" style="fill:#000000;shape-rendering:crispEdges;"/>
  <rect x="585.3658536585366" y="804.8780487804879" width="24.390243902439025" height="24.390243902439025" style="fill:#000000;shape-rendering:crispEdges;"/>
  <rect x="609.7560975609756" y="804.8780487804879" width="24.390243902439025" height="24.390243902439025" style="fill:#000000;shape-rendering:crispEdges;"/>
  <rect x="682.9268292682927" y="804.8780487804879" width="24.390243902439025" height="24.390243902439025" style="fill:#000000;shape-rendering:crispEdges;"/>
  <rect x="731.7073170731708" y="804.8780487804879" width="24.390243902439025" height="24.390243902439025" style="fill:#000000;shape-rendering:crispEdges;"/>
  <rect x="780.4878048780488" y="804.8780487804879" width="24.390243902439025" height="24.390243902439025" style="fill:#000000;shape-rendering:crispEdges;"/>
  <rect x="804.8780487804879" y="804.8780487804879" width="24.390243902439025" height="24.390243902439025" style="fill:#000000;shape-rendering:crispEdges;"/>
  <rect x="829.2682926829268" y="804.8780487804879" width="24.390243902439025" height="24.390243902439025" style="fill:#000000;shape-rendering:crispEdges;"/>
  <rect x="97.5609756097561" y="829.2682926829268" width="24.390243902439025" height="24.390243902439025" style="fill:#000000;shape-rendering:crispEdges;"/>
  <rect x="146.34146341463415" y="829.2682926829268" width="24.390243902439025" height="24.390243902439025" style="fill:#000000;shape-rendering:crispEdges;"/>
  <rect x="170.7317073170732" y="829.2682926829268" width="24.390243902439025" height="24.390243902439025" style="fill:#000000;shape-rendering:crispEdges;"/>
  <rect x="195.1219512195122" y="829.2682926829268" width="24.390243902439025" height="24.390243902439025" style="fill:#000000;shape-rendering:crispEdges;"/>
  <rect x="243.90243902439025" y="829.2682926829268" width="24.390243902439025" height="24.390243902439025" style="fill:#000000;shape-rendering:crispEdges;"/>
  <rect x="292.6829268292683" y="829.2682926829268" width="24.390243902439025" height="24.390243902439025" style="fill:#000000;shape-rendering:crispEdges;"/>
  <rect x="317.0731707317073" y="829.2682926829268" width="24.390243902439025" height="24.390243902439025" style="fill:#000000;shape-rendering:crispEdges;"/>
  <rect x="439.0243902439025" y="829.2682926829268" width="24.390243902439025" height="24.390243902439025" style="fill:#000000;shape-rendering:crispEdges;"/>
  <rect x="512.1951219512196" y="829.2682926829268" width="24.390243902439025" height="24.390243902439025" style="fill:#000000;shape-rendering:crispEdges;"/>
  <rect x="634.1463414634147" y="829.2682926829268" width="24.390243902439025" height="24.390243902439025" style="fill:#000000;shape-rendering:crispEdges;"/>
  <rect x="707.3170731707316" y="829.2682926829268" width="24.390243902439025" height="24.390243902439025" style="fill:#000000;shape-rendering:crispEdges;"/>
  <rect x="804.8780487804879" y="829.2682926829268" width="24.390243902439025" height="24.390243902439025" style="fill:#000000;shape-rendering:crispEdges;"/>
  <rect x="97.5609756097561" y="853.6585365853659" width="24.390243902439025" height="24.390243902439025" style="fill:#000000;shape-rendering:crispEdges;"/>
  <rect x="243.90243902439025" y="853.6585365853659" width="24.390243902439025" height="24.390243902439025" style="fill:#000000;shape-rendering:crispEdges;"/>
  <rect x="317.0731707317073" y="853.6585365853659" width="24.390243902439025" height="24.390243902439025" style="fill:#000000;shape-rendering:crispEdges;"/>
  <rect x="341.4634146341464" y="853.6585365853659" width="24.390243902439025" height="24.390243902439025" style="fill:#000000;shape-rendering:crispEdges;"/>
  <rect x="365.8536585365854" y="853.6585365853659" width="24.390243902439025" height="24.390243902439025" style="fill:#000000;shape-rendering:crispEdges;"/>
  <rect x="439.0243902439025" y="853.6585365853659" width="24.390243902439025" height="24.390243902439025" style="fill:#000000;shape-rendering:crispEdges;"/>
  <rect x="487.8048780487805" y="853.6585365853659" width="24.390243902439025" height="24.390243902439025" style="fill:#000000;shape-rendering:crispEdges;"/>
  <rect x="512.1951219512196" y="853.6585365853659" width="24.390243902439025" height="24.390243902439025" style="fill:#000000;shape-rendering:crispEdges;"/>
  <rect x="560.9756097560976" y="853.6585365853659" width="24.390243902439025" height="24.390243902439025" style="fill:#000000;shape-rendering:crispEdges;"/>
  <rect x="609.7560975609756" y="853.6585365853659" width="24.390243902439025" height="24.390243902439025" style="fill:#000000;shape-rendering:crispEdges;"/>
  <rect x="634.1463414634147" y="853.6585365853659" width="24.390243902439025" height="24.390243902439025" style="fill:#000000;shape-rendering:crispEdges;"/>
  <rect x="682.9268292682927" y="853.6585365853659" width="24.390243902439025" height="24.390243902439025" style="fill:#000000;shape-rendering:crispEdges;"/>
  <rect x="707.3170731707316" y="853.6585365853659" width="24.390243902439025" height="24.390243902439025" style="fill:#000000;shape-rendering:crispEdges;"/>
  <rect x="731.7073170731708" y="853.6585365853659" width="24.390243902439025" height="24.390243902439025" style="fill:#000000;shape-rendering:crispEdges;"/>
  <rect x="804.8780487804879" y="853.6585365853659" width="24.390243902439025" height="24.390243902439025" style="fill:#000000;shape-rendering:crispEdges;"/>
  <rect x="97.5609756097561" y="878.0487804878048" width="24.390243902439025" height="24.390243902439025" style="fill:#000000;shape-rendering:crispEdges;"/>
  <rect x="121.95121951219512" y="878.0487804878048" width="24.390243902439025" height="24.390243902439025" style="fill:#000000;shape-rendering:crispEdges;"/>
  <rect x="146.34146341463415" y="878.0487804878048" width="24.390243902439025" height="24.390243902439025" style="fill:#000000;shape-rendering:crispEdges;"/>
  <rect x="170.7317073170732" y="878.0487804878048" width="24.390243902439025" height="24.390243902439025" style="fill:#000000;shape-rendering:crispEdges;"/>
  <rect x="195.1219512195122" y="878.0487804878048" width="24.390243902439025" height="24.390243902439025" style="fill:#000000;shape-rendering:crispEdges;"/>
  <rect x="219.5121951219512" y="878.0487804878048" width="24.390243902439025" height="24.390243902439025" style="fill:#000000;shape-rendering:crispEdges;"/>
  <rect x="243.90243902439025" y="878.0487804878048" width="24.390243902439025" height="24.390243902439025" style="fill:#000000;shape-rendering:crispEdges;"/>
  <rect x="365.8536585365854" y="878.0487804878048" width="24.390243902439025" height="24.390243902439025" style="fill:#000000;shape-rendering:crispEdges;"/>
  <rect x="560.9756097560976" y="878.0487804878048" width="24.390243902439025" height="24.390243902439025" style="fill:#000000;shape-rendering:crispEdges;"/>
  <rect x="658.5365853658536" y="878.0487804878048" width="24.390243902439025" height="24.390243902439025" style="fill:#000000;shape-rendering:crispEdges;"/>
  <rect x="682.9268292682927" y="878.0487804878048" width="24.390243902439025" height="24.390243902439025" style="fill:#000000;shape-rendering:crispEdges;"/>
  <rect x="756.0975609756097" y="878.0487804878048" width="24.390243902439025" height="24.390243902439025" style="fill:#000000;shape-rendering:crispEdges;"/>
  <rect x="878.0487804878048" y="878.0487804878048" width="24.390243902439025" height="24.390243902439025" style="fill:#000000;shape-rendering:crispEdges;"/>
</svg>