<?xml version="1.0" standalone="yes"?>
<svg xmlns="http://www.w3.org/2000/svg" version="1.1" width="400" height="400">
  <rect x="0" y="0" width="400" height="400" style="fill:#ffffff;shape-rendering:crispEdges;"/>
  <rect x="0" y="0" width="19.047619047619047" height="19.047619047619047" style="fill:#000000;shape-rendering:crispEdges;"/>
  <rect x="19.047619047619047" y="0" width="19.047619047619047" height="19.047619047619047" style="fill:#000000;shape-rendering:crispEdges;"/>
  <rect x="38.095238095238095" y="0" width="19.047619047619047" height="19.047619047619047" style="fill:#000000;shape-rendering:crispEdges;"/>
  <rect x="57.14285714285714" y="0" width="19.047619047619047" height="19.047619047619047" style="fill:#000000;shape-rendering:crispEdges;"/>
  <rect x="76.19047619047619" y="0" width="19.047619047619047" height="19.047619047619047" style="fill:#000000;shape-rendering:crispEdges;"/>
  <rect x="95.23809523809524" y="0" width="19.047619047619047" height="19.047619047619047" style="fill:#000000;shape-rendering:crispEdges;"/>
  <rect x="114.28571428571428" y="0" width="19.047619047619047" height="19.047619047619047" style="fill:#000000;shape-rendering:crispEdges;"/>
  <rect x="152.38095238095238" y="0" width="19.047619047619047" height="19.047619047619047" style="fill:#000000;shape-rendering:crispEdges;"/>
  <rect x="171.42857142857142" y="0" width="19.047619047619047" height="19.047619047619047" style="fill:#000000;shape-rendering:crispEdges;"/>
  <rect x="209.52380952380952" y="0" width="19.047619047619047" height="19.047619047619047" style="fill:#000000;shape-rendering:crispEdges;"/>
  <rect x="228.57142857142856" y="0" width="19.047619047619047" height="19.047619047619047" style="fill:#000000;shape-rendering:crispEdges;"/>
  <rect x="266.6666666666667" y="0" width="19.047619047619047" height="19.047619047619047" style="fill:#000000;shape-rendering:crispEdges;"/>
  <rect x="285.7142857142857" y="0" width="19.047619047619047" height="19.047619047619047" style="fill:#000000;shape-rendering:crispEdges;"/>
  <rect x="304.76190476190476" y="0" width="19.047619047619047" height="19.047619047619047" style="fill:#000000;shape-rendering:crispEdges;"/>
  <rect x="323.8095238095238" y="0" width="19.047619047619047" height="19.047619047619047" style="fill:#000000;shape-rendering:crispEdges;"/>
  <rect x="342.85714285714283" y="0" width="19.047619047619047" height="19.047619047619047" style="fill:#000000;shape-rendering:crispEdges;"/>
  <rect x="361.9047619047619" y="0" width="19.047619047619047" height="19.047619047619047" style="fill:#000000;shape-rendering:crispEdges;"/>
  <rect x="380.95238095238096" y="0" width="19.047619047619047" height="19.047619047619047" style="fill:#000000;shape-rendering:crispEdges;"/>
  <rect x="0" y="19.047619047619047" width="19.047619047619047" height="19.047619047619047" style="fill:#000000;shape-rendering:crispEdges;"/>
  <rect x="114.28571428571428" y="19.047619047619047" width="19.047619047619047" height="19.047619047619047" style="fill:#000000;shape-rendering:crispEdges;"/>
  <rect x="152.38095238095238" y="19.047619047619047" width="19.047619047619047" height="19.047619047619047" style="fill:#000000;shape-rendering:crispEdges;"/>
  <rect x="190.47619047619048" y="19.047619047619047" width="19.047619047619047" height="19.047619047619047" style="fill:#000000;shape-rendering:crispEdges;"/>
  <rect x="209.52380952380952" y="19.047619047619047" width="19.047619047619047" height="19.047619047619047" style="fill:#000000;shape-rendering:crispEdges;"/>
  <rect x="228.57142857142856" y="19.047619047619047" width="19.047619047619047" height="19.047619047619047" style="fill:#000000;shape-rendering:crispEdges;"/>
  <rect x="266.6666666666667" y="19.047619047619047" width="19.047619047619047" height="19.047619047619047" style="fill:#000000;shape-rendering:crispEdges;"/>
  <rect x="380.95238095238096" y="19.047619047619047" width="19.047619047619047" height="19.047619047619047" style="fill:#000000;shape-rendering:crispEdges;"/>
  <rect x="0" y="38.095238095238095" width="19.047619047619047" height="19.047619047619047" style="fill:#000000;shape-rendering:crispEdges;"/>
  <rect x="38.095238095238095" y="38.095238095238095" width="19.047619047619047" height="19.047619047619047" style="fill:#000000;shape-rendering:crispEdges;"/>
  <rect x="57.14285714285714" y="38.095238095238095" width="19.047619047619047" height="19.047619047619047" style="fill:#000000;shape-rendering:crispEdges;"/>
  <rect x="76.19047619047619" y="38.095238095238095" width="19.047619047619047" height="19.047619047619047" style="fill:#000000;shape-rendering:crispEdges;"/>
  <rect x="114.28571428571428" y="38.095238095238095" width="19.047619047619047" height="19.047619047619047" style="fill:#000000;shape-rendering:crispEdges;"/>
  <rect x="152.38095238095238" y="38.095238095238095" width="19.047619047619047" height="19.047619047619047" style="fill:#000000;shape-rendering:crispEdges;"/>
  <rect x="171.42857142857142" y="38.095238095238095" width="19.047619047619047" height="19.047619047619047" style="fill:#000000;shape-rendering:crispEdges;"/>
  <rect x="190.47619047619048" y="38.095238095238095" width="19.047619047619047" height="19.047619047619047" style="fill:#000000;shape-rendering:crispEdges;"/>
  <rect x="228.57142857142856" y="38.095238095238095" width="19.047619047619047" height="19.047619047619047" style="fill:#000000;shape-rendering:crispEdges;"/>
  <rect x="266.6666666666667" y="38.095238095238095" width="19.047619047619047" height="19.047619047619047" style="fill:#000000;shape-rendering:crispEdges;"/>
  <rect x="304.76190476190476" y="38.095238095238095" width="19.047619047619047" height="19.047619047619047" style="fill:#000000;shape-rendering:crispEdges;"/>
  <rect x="323.8095238095238" y="38.095238095238095" width="19.047619047619047" height="19.047619047619047" style="fill:#000000;shape-rendering:crispEdges;"/>
  <rect x="342.85714285714283" y="38.095238095238095" width="19.047619047619047" height="19.047619047619047" style="fill:#000000;shape-rendering:crispEdges;"/>
  <rect x="380.95238095238096" y="38.095238095238095" width="19.047619047619047" height="19.047619047619047" style="fill:#000000;shape-rendering:crispEdges;"/>
  <rect x="0" y="57.14285714285714" width="19.047619047619047" height="19.047619047619047" style="fill:#000000;shape-rendering:crispEdges;"/>
  <rect x="38.095238095238095" y="57.14285714285714" width="19.047619047619047" height="19.047619047619047" style="fill:#000000;shape-rendering:crispEdges;"/>
  <rect x="57.14285714285714" y="57.14285714285714" width="19.047619047619047" height="19.047619047619047" style="fill:#000000;shape-rendering:crispEdges;"/>
  <rect x="76.19047619047619" y="57.14285714285714" width="19.047619047619047" height="19.047619047619047" style="fill:#000000;shape-rendering:crispEdges;"/>
  <rect x="114.28571428571428" y="57.14285714285714" width="19.047619047619047" height="19.047619047619047" style="fill:#000000;shape-rendering:crispEdges;"/>
  <rect x="152.38095238095238" y="57.14285714285714" width="19.047619047619047" height="19.047619047619047" style="fill:#000000;shape-rendering:crispEdges;"/>
  <rect x="190.47619047619048" y="57.14285714285714" width="19.047619047619047" height="19.047619047619047" style="fill:#000000;shape-rendering:crispEdges;"/>
  <rect x="228.57142857142856" y="57.14285714285714" width="19.047619047619047" height="19.047619047619047" style="fill:#000000;shape-rendering:crispEdges;"/>
  <rect x="266.6666666666667" y="57.14285714285714" width="19.047619047619047" height="19.047619047619047" style="fill:#000000;shape-rendering:crispEdges;"/>
  <rect x="304.76190476190476" y="57.14285714285714" width="19.047619047619047" height="19.047619047619047" style="fill:#000000;shape-rendering:crispEdges;"/>
  <rect x="323.8095238095238" y="57.14285714285714" width="19.047619047619047" height="19.047619047619047" style="fill:#000000;shape-rendering:crispEdges;"/>
  <rect x="342.85714285714283" y="57.14285714285714" width="19.047619047619047" height="19.047619047619047" style="fill:#000000;shape-rendering:crispEdges;"/>
  <rect x="380.95238095238096" y="57.14285714285714" width="19.047619047619047" height="19.047619047619047" style="fill:#000000;shape-rendering:crispEdges;"/>
  <rect x="0" y="76.19047619047619" width="19.047619047619047" height="19.047619047619047" style="fill:#000000;shape-rendering:crispEdges;"/>
  <rect x="38.095238095238095" y="76.19047619047619" width="19.047619047619047" height="19.047619047619047" style="fill:#000000;shape-rendering:crispEdges;"/>
  <rect x="57.14285714285714" y="76.19047619047619" width="19.047619047619047" height="19.047619047619047" style="fill:#000000;shape-rendering:crispEdges;"/>
  <rect x="76.19047619047619" y="76.19047619047619" width="19.047619047619047" height="19.047619047619047" style="fill:#000000;shape-rendering:crispEdges;"/>
  <rect x="114.28571428571428" y="76.19047619047619" width="19.047619047619047" height="19.047619047619047" style="fill:#000000;shape-rendering:crispEdges;"/>
  <rect x="152.38095238095238" y="76.19047619047619" width="19.047619047619047" height="19.047619047619047" style="fill:#000000;shape-rendering:crispEdges;"/>
  <rect x="171.42857142857142" y="76.19047619047619" width="19.047619047619047" height="19.047619047619047" style="fill:#000000;shape-rendering:crispEdges;"/>
  <rect x="266.6666666666667" y="76.19047619047619" width="19.047619047619047" height="19.047619047619047" style="fill:#000000;shape-rendering:crispEdges;"/>
  <rect x="304.76190476190476" y="76.19047619047619" width="19.047619047619047" height="19.047619047619047" style="fill:#000000;shape-rendering:crispEdges;"/>
  <rect x="323.8095238095238" y="76.19047619047619" width="19.047619047619047" height="19.047619047619047" style="fill:#000000;shape-rendering:crispEdges;"/>
  <rect x="342.85714285714283" y="76.19047619047619" width="19.047619047619047" height="19.047619047619047" style="fill:#000000;shape-rendering:crispEdges;"/>
  <rect x="380.95238095238096" y="76.19047619047619" width="19.047619047619047" height="19.047619047619047" style="fill:#000000;shape-rendering:crispEdges;"/>
  <rect x="0" y="95.23809523809524" width="19.047619047619047" height="19.047619047619047" style="fill:#000000;shape-rendering:crispEdges;"/>
  <rect x="114.28571428571428" y="95.23809523809524" width="19.047619047619047" height="19.047619047619047" style="fill:#000000;shape-rendering:crispEdges;"/>
  <rect x="171.42857142857142" y="95.23809523809524" width="19.047619047619047" height="19.047619047619047" style="fill:#000000;shape-rendering:crispEdges;"/>
  <rect x="209.52380952380952" y="95.23809523809524" width="19.047619047619047" height="19.047619047619047" style="fill:#000000;shape-rendering:crispEdges;"/>
  <rect x="228.57142857142856" y="95.23809523809524" width="19.047619047619047" height="19.047619047619047" style="fill:#000000;shape-rendering:crispEdges;"/>
  <rect x="266.6666666666667" y="95.23809523809524" width="19.047619047619047" height="19.047619047619047" style="fill:#000000;shape-rendering:crispEdges;"/>
  <rect x="380.95238095238096" y="95.23809523809524" width="19.047619047619047" height="19.047619047619047" style="fill:#000000;shape-rendering:crispEdges;"/>
  <rect x="0" y="114.28571428571428" width="19.047619047619047" height="19.047619047619047" style="fill:#000000;shape-rendering:crispEdges;"/>
  <rect x="19.047619047619047" y="114.28571428571428" width="19.047619047619047" height="19.047619047619047" style="fill:#000000;shape-rendering:crispEdges;"/>
  <rect x="38.095238095238095" y="114.28571428571428" width="19.047619047619047" height="19.047619047619047" style="fill:#000000;shape-rendering:crispEdges;"/>
  <rect x="57.14285714285714" y="114.28571428571428" width="19.047619047619047" height="19.047619047619047" style="fill:#000000;shape-rendering:crispEdges;"/>
  <rect x="76.19047619047619" y="114.28571428571428" width="19.047619047619047" height="19.047619047619047" style="fill:#000000;shape-rendering:crispEdges;"/>
  <rect x="95.23809523809524" y="114.28571428571428" width="19.047619047619047" height="19.047619047619047" style="fill:#000000;shape-rendering:crispEdges;"/>
  <rect x="114.28571428571428" y="114.28571428571428" width="19.047619047619047" height="19.047619047619047" style="fill:#000000;shape-rendering:crispEdges;"/>
  <rect x="152.38095238095238" y="114.28571428571428" width="19.047619047619047" height="19.047619047619047" style="fill:#000000;shape-rendering:crispEdges;"/>
  <rect x="190.47619047619048" y="114.28571428571428" width="19.047619047619047" height="19.047619047619047" style="fill:#000000;shape-rendering:crispEdges;"/>
  <rect x="228.57142857142856" y="114.28571428571428" width="19.047619047619047" height="19.047619047619047" style="fill:#000000;shape-rendering:crispEdges;"/>
  <rect x="266.6666666666667" y="114.28571428571428" width="19.047619047619047" height="19.047619047619047" style="fill:#000000;shape-rendering:crispEdges;"/>
  <rect x="285.7142857142857" y="114.28571428571428" width="19.047619047619047" height="19.047619047619047" style="fill:#000000;shape-rendering:crispEdges;"/>
  <rect x="304.76190476190476" y="114.28571428571428" width="19.047619047619047" height="19.047619047619047" style="fill:#000000;shape-rendering:crispEdges;"/>
  <rect x="323.8095238095238" y="114.28571428571428" width="19.047619047619047" height="19.047619047619047" style="fill:#000000;shape-rendering:crispEdges;"/>
  <rect x="342.85714285714283" y="114.28571428571428" width="19.047619047619047" height="19.047619047619047" style="fill:#000000;shape-rendering:crispEdges;"/>
  <rect x="361.9047619047619" y="114.28571428571428" width="19.047619047619047" height="19.047619047619047" style="fill:#000000;shape-rendering:crispEdges;"/>
  <rect x="380.95238095238096" y="114.28571428571428" width="19.047619047619047" height="19.047619047619047" style="fill:#000000;shape-rendering:crispEdges;"/>
  <rect x="152.38095238095238" y="133.33333333333334" width="19.047619047619047" height="19.047619047619047" style="fill:#000000;shape-rendering:crispEdges;"/>
  <rect x="190.47619047619048" y="133.33333333333334" width="19.047619047619047" height="19.047619047619047" style="fill:#000000;shape-rendering:crispEdges;"/>
  <rect x="228.57142857142856" y="133.33333333333334" width="19.047619047619047" height="19.047619047619047" style="fill:#000000;shape-rendering:crispEdges;"/>
  <rect x="19.047619047619047" y="152.38095238095238" width="19.047619047619047" height="19.047619047619047" style="fill:#000000;shape-rendering:crispEdges;"/>
  <rect x="57.14285714285714" y="152.38095238095238" width="19.047619047619047" height="19.047619047619047" style="fill:#000000;shape-rendering:crispEdges;"/>
  <rect x="95.23809523809524" y="152.38095238095238" width="19.047619047619047" height="19.047619047619047" style="fill:#000000;shape-rendering:crispEdges;"/>
  <rect x="114.28571428571428" y="152.38095238095238" width="19.047619047619047" height="19.047619047619047" style="fill:#000000;shape-rendering:crispEdges;"/>
  <rect x="152.38095238095238" y="152.38095238095238" width="19.047619047619047" height="19.047619047619047" style="fill:#000000;shape-rendering:crispEdges;"/>
  <rect x="171.42857142857142" y="152.38095238095238" width="19.047619047619047" height="19.047619047619047" style="fill:#000000;shape-rendering:crispEdges;"/>
  <rect x="209.52380952380952" y="152.38095238095238" width="19.047619047619047" height="19.047619047619047" style="fill:#000000;shape-rendering:crispEdges;"/>
  <rect x="228.57142857142856" y="152.38095238095238" width="19.047619047619047" height="19.047619047619047" style="fill:#000000;shape-rendering:crispEdges;"/>
  <rect x="247.61904761904762" y="152.38095238095238" width="19.047619047619047" height="19.047619047619047" style="fill:#000000;shape-rendering:crispEdges;"/>
  <rect x="266.6666666666667" y="152.38095238095238" width="19.047619047619047" height="19.047619047619047" style="fill:#000000;shape-rendering:crispEdges;"/>
  <rect x="304.76190476190476" y="152.38095238095238" width="19.047619047619047" height="19.047619047619047" style="fill:#000000;shape-rendering:crispEdges;"/>
  <rect x="323.8095238095238" y="152.38095238095238" width="19.047619047619047" height="19.047619047619047" style="fill:#000000;shape-rendering:crispEdges;"/>
  <rect x="342.85714285714283" y="152.38095238095238" width="19.047619047619047" height="19.047619047619047" style="fill:#000000;shape-rendering:crispEdges;"/>
  <rect x="361.9047619047619" y="152.38095238095238" width="19.047619047619047" height="19.047619047619047" style="fill:#000000;shape-rendering:crispEdges;"/>
  <rect x="380.95238095238096" y="152.38095238095238" width="19.047619047619047" height="19.047619047619047" style="fill:#000000;shape-rendering:crispEdges;"/>
  <rect x="19.047619047619047" y="171.42857142857142" width="19.047619047619047" height="19.047619047619047" style="fill:#000000;shape-rendering:crispEdges;"/>
  <rect x="57.14285714285714" y="171.42857142857142" width="19.047619047619047" height="19.047619047619047" style="fill:#000000;shape-rendering:crispEdges;"/>
  <rect x="76.19047619047619" y="171.42857142857142" width="19.047619047619047" height="19.047619047619047" style="fill:#000000;shape-rendering:crispEdges;"/>
  <rect x="133.33333333333334" y="171.42857142857142" width="19.047619047619047" height="19.047619047619047" style="fill:#000000;shape-rendering:crispEdges;"/>
  <rect x="190.47619047619048" y="171.42857142857142" width="19.047619047619047" height="19.047619047619047" style="fill:#000000;shape-rendering:crispEdges;"/>
  <rect x="247.61904761904762" y="171.42857142857142" width="19.047619047619047" height="19.047619047619047" style="fill:#000000;shape-rendering:crispEdges;"/>
  <rect x="266.6666666666667" y="171.42857142857142" width="19.047619047619047" height="19.047619047619047" style="fill:#000000;shape-rendering:crispEdges;"/>
  <rect x="285.7142857142857" y="171.42857142857142" width="19.047619047619047" height="19.047619047619047" style="fill:#000000;shape-rendering:crispEdges;"/>
  <rect x="304.76190476190476" y="171.42857142857142" width="19.047619047619047" height="19.047619047619047" style="fill:#000000;shape-rendering:crispEdges;"/>
  <rect x="342.85714285714283" y="171.42857142857142" width="19.047619047619047" height="19.047619047619047" style="fill:#000000;shape-rendering:crispEdges;"/>
  <rect x="0" y="190.47619047619048" width="19.047619047619047" height="19.047619047619047" style="fill:#000000;shape-rendering:crispEdges;"/>
  <rect x="19.047619047619047" y="190.47619047619048" width="19.047619047619047" height="19.047619047619047" style="fill:#000000;shape-rendering:crispEdges;"/>
  <rect x="38.095238095238095" y="190.47619047619048" width="19.047619047619047" height="19.047619047619047" style="fill:#000000;shape-rendering:crispEdges;"/>
  <rect x="114.28571428571428" y="190.47619047619048" width="19.047619047619047" height="19.047619047619047" style="fill:#000000;shape-rendering:crispEdges;"/>
  <rect x="171.42857142857142" y="190.47619047619048" width="19.047619047619047" height="19.047619047619047" style="fill:#000000;shape-rendering:crispEdges;"/>
  <rect x="209.52380952380952" y="190.47619047619048" width="19.047619047619047" height="19.047619047619047" style="fill:#000000;shape-rendering:crispEdges;"/>
  <rect x="228.57142857142856" y="190.47619047619048" width="19.047619047619047" height="19.047619047619047" style="fill:#000000;shape-rendering:crispEdges;"/>
  <rect x="247.61904761904762" y="190.47619047619048" width="19.047619047619047" height="19.047619047619047" style="fill:#000000;shape-rendering:crispEdges;"/>
  <rect x="266.6666666666667" y="190.47619047619048" width="19.047619047619047" height="19.047619047619047" style="fill:#000000;shape-rendering:crispEdges;"/>
  <rect x="304.76190476190476" y="190.47619047619048" width="19.047619047619047" height="19.047619047619047" style="fill:#000000;shape-rendering:crispEdges;"/>
  <rect x="323.8095238095238" y="190.47619047619048" width="19.047619047619047" height="19.047619047619047" style="fill:#000000;shape-rendering:crispEdges;"/>
  <rect x="342.85714285714283" y="190.47619047619048" width="19.047619047619047" height="19.047619047619047" style="fill:#000000;shape-rendering:crispEdges;"/>
  <rect x="361.9047619047619" y="190.47619047619048" width="19.047619047619047" height="19.047619047619047" style="fill:#000000;shape-rendering:crispEdges;"/>
  <rect x="380.95238095238096" y="190.47619047619048" width="19.047619047619047" height="19.047619047619047" style="fill:#000000;shape-rendering:crispEdges;"/>
  <rect x="0" y="209.52380952380952" width="19.047619047619047" height="19.047619047619047" style="fill:#000000;shape-rendering:crispEdges;"/>
  <rect x="38.095238095238095" y="209.52380952380952" width="19.047619047619047" height="19.047619047619047" style="fill:#000000;shape-rendering:crispEdges;"/>
  <rect x="95.23809523809524" y="209.52380952380952" width="19.047619047619047" height="19.047619047619047" style="fill:#000000;shape-rendering:crispEdges;"/>
  <rect x="152.38095238095238" y="209.52380952380952" width="19.047619047619047" height="19.047619047619047" style="fill:#000000;shape-rendering:crispEdges;"/>
  <rect x="171.42857142857142" y="209.52380952380952" width="19.047619047619047" height="19.047619047619047" style="fill:#000000;shape-rendering:crispEdges;"/>
  <rect x="209.52380952380952" y="209.52380952380952" width="19.047619047619047" height="19.047619047619047" style="fill:#000000;shape-rendering:crispEdges;"/>
  <rect x="266.6666666666667" y="209.52380952380952" width="19.047619047619047" height="19.047619047619047" style="fill:#000000;shape-rendering:crispEdges;"/>
  <rect x="304.76190476190476" y="209.52380952380952" width="19.047619047619047" height="19.047619047619047" style="fill:#000000;shape-rendering:crispEdges;"/>
  <rect x="323.8095238095238" y="209.52380952380952" width="19.047619047619047" height="19.047619047619047" style="fill:#000000;shape-rendering:crispEdges;"/>
  <rect x="361.9047619047619" y="209.52380952380952" width="19.047619047619047" height="19.047619047619047" style="fill:#000000;shape-rendering:crispEdges;"/>
  <rect x="0" y="228.57142857142856" width="19.047619047619047" height="19.047619047619047" style="fill:#000000;shape-rendering:crispEdges;"/>
  <rect x="19.047619047619047" y="228.57142857142856" width="19.047619047619047" height="19.047619047619047" style="fill:#000000;shape-rendering:crispEdges;"/>
  <rect x="38.095238095238095" y="228.57142857142856" width="19.047619047619047" height="19.047619047619047" style="fill:#000000;shape-rendering:crispEdges;"/>
  <rect x="57.14285714285714" y="228.57142857142856" width="19.047619047619047" height="19.047619047619047" style="fill:#000000;shape-rendering:crispEdges;"/>
  <rect x="76.19047619047619" y="228.57142857142856" width="19.047619047619047" height="19.047619047619047" style="fill:#000000;shape-rendering:crispEdges;"/>
  <rect x="114.28571428571428" y="228.57142857142856" width="19.047619047619047" height="19.047619047619047" style="fill:#000000;shape-rendering:crispEdges;"/>
  <rect x="171.42857142857142" y="228.57142857142856" width="19.047619047619047" height="19.047619047619047" style="fill:#000000;shape-rendering:crispEdges;"/>
  <rect x="190.47619047619048" y="228.57142857142856" width="19.047619047619047" height="19.047619047619047" style="fill:#000000;shape-rendering:crispEdges;"/>
  <rect x="209.52380952380952" y="228.57142857142856" width="19.047619047619047" height="19.047619047619047" style="fill:#000000;shape-rendering:crispEdges;"/>
  <rect x="228.57142857142856" y="228.57142857142856" width="19.047619047619047" height="19.047619047619047" style="fill:#000000;shape-rendering:crispEdges;"/>
  <rect x="247.61904761904762" y="228.57142857142856" width="19.047619047619047" height="19.047619047619047" style="fill:#000000;shape-rendering:crispEdges;"/>
  <rect x="323.8095238095238" y="228.57142857142856" width="19.047619047619047" height="19.047619047619047" style="fill:#000000;shape-rendering:crispEdges;"/>
  <rect x="342.85714285714283" y="228.57142857142856" width="19.047619047619047" height="19.047619047619047" style="fill:#000000;shape-rendering:crispEdges;"/>
  <rect x="361.9047619047619" y="228.57142857142856" width="19.047619047619047" height="19.047619047619047" style="fill:#000000;shape-rendering:crispEdges;"/>
  <rect x="380.95238095238096" y="228.57142857142856" width="19.047619047619047" height="19.047619047619047" style="fill:#000000;shape-rendering:crispEdges;"/>
  <rect x="152.38095238095238" y="247.61904761904762" width="19.047619047619047" height="19.047619047619047" style="fill:#000000;shape-rendering:crispEdges;"/>
  <rect x="171.42857142857142" y="247.61904761904762" width="19.047619047619047" height="19.047619047619047" style="fill:#000000;shape-rendering:crispEdges;"/>
  <rect x="209.52380952380952" y="247.61904761904762" width="19.047619047619047" height="19.047619047619047" style="fill:#000000;shape-rendering:crispEdges;"/>
  <rect x="266.6666666666667" y="247.61904761904762" width="19.047619047619047" height="19.047619047619047" style="fill:#000000;shape-rendering:crispEdges;"/>
  <rect x="304.76190476190476" y="247.61904761904762" width="19.047619047619047" height="19.047619047619047" style="fill:#000000;shape-rendering:crispEdges;"/>
  <rect x="323.8095238095238" y="247.61904761904762" width="19.047619047619047" height="19.047619047619047" style="fill:#000000;shape-rendering:crispEdges;"/>
  <rect x="361.9047619047619" y="247.61904761904762" width="19.047619047619047" height="19.047619047619047" style="fill:#000000;shape-rendering:crispEdges;"/>
  <rect x="0" y="266.6666666666667" width="19.047619047619047" height="19.047619047619047" style="fill:#000000;shape-rendering:crispEdges;"/>
  <rect x="19.047619047619047" y="266.6666666666667" width="19.047619047619047" height="19.047619047619047" style="fill:#000000;shape-rendering:crispEdges;"/>
  <rect x="38.095238095238095" y="266.6666666666667" width="19.047619047619047" height="19.047619047619047" style="fill:#000000;shape-rendering:crispEdges;"/>
  <rect x="57.14285714285714" y="266.6666666666667" width="19.047619047619047" height="19.047619047619047" style="fill:#000000;shape-rendering:crispEdges;"/>
  <rect x="76.19047619047619" y="266.6666666666667" width="19.047619047619047" height="19.047619047619047" style="fill:#000000;shape-rendering:crispEdges;"/>
  <rect x="95.23809523809524" y="266.6666666666667" width="19.047619047619047" height="19.047619047619047" style="fill:#000000;shape-rendering:crispEdges;"/>
  <rect x="114.28571428571428" y="266.6666666666667" width="19.047619047619047" height="19.047619047619047" style="fill:#000000;shape-rendering:crispEdges;"/>
  <rect x="171.42857142857142" y="266.6666666666667" width="19.047619047619047" height="19.047619047619047" style="fill:#000000;shape-rendering:crispEdges;"/>
  <rect x="190.47619047619048" y="266.6666666666667" width="19.047619047619047" height="19.047619047619047" style="fill:#000000;shape-rendering:crispEdges;"/>
  <rect x="209.52380952380952" y="266.6666666666667" width="19.047619047619047" height="19.047619047619047" style="fill:#000000;shape-rendering:crispEdges;"/>
  <rect x="323.8095238095238" y="266.6666666666667" width="19.047619047619047" height="19.047619047619047" style="fill:#000000;shape-rendering:crispEdges;"/>
  <rect x="342.85714285714283" y="266.6666666666667" width="19.047619047619047" height="19.047619047619047" style="fill:#000000;shape-rendering:crispEdges;"/>
  <rect x="361.9047619047619" y="266.6666666666667" width="19.047619047619047" height="19.047619047619047" style="fill:#000000;shape-rendering:crispEdges;"/>
  <rect x="0" y="285.7142857142857" width="19.047619047619047" height="19.047619047619047" style="fill:#000000;shape-rendering:crispEdges;"/>
  <rect x="114.28571428571428" y="285.7142857142857" width="19.047619047619047" height="19.047619047619047" style="fill:#000000;shape-rendering:crispEdges;"/>
  <rect x="152.38095238095238" y="285.7142857142857" width="19.047619047619047" height="19.047619047619047" style="fill:#000000;shape-rendering:crispEdges;"/>
  <rect x="190.47619047619048" y="285.7142857142857" width="19.047619047619047" height="19.047619047619047" style="fill:#000000;shape-rendering:crispEdges;"/>
  <rect x="228.57142857142856" y="285.7142857142857" width="19.047619047619047" height="19.047619047619047" style="fill:#000000;shape-rendering:crispEdges;"/>
  <rect x="247.61904761904762" y="285.7142857142857" width="19.047619047619047" height="19.047619047619047" style="fill:#000000;shape-rendering:crispEdges;"/>
  <rect x="285.7142857142857" y="285.7142857142857" width="19.047619047619047" height="19.047619047619047" style="fill:#000000;shape-rendering:crispEdges;"/>
  <rect x="323.8095238095238" y="285.7142857142857" width="19.047619047619047" height="19.047619047619047" style="fill:#000000;shape-rendering:crispEdges;"/>
  <rect x="342.85714285714283" y="285.7142857142857" width="19.047619047619047" height="19.047619047619047" style="fill:#000000;shape-rendering:crispEdges;"/>
  <rect x="0" y="304.76190476190476" width="19.047619047619047" height="19.047619047619047" style="fill:#000000;shape-rendering:crispEdges;"/>
  <rect x="38.095238095238095" y="304.76190476190476" width="19.047619047619047" height="19.047619047619047" style="fill:#000000;shape-rendering:crispEdges;"/>
  <rect x="57.14285714285714" y="304.76190476190476" width="19.047619047619047" height="19.047619047619047" style="fill:#000000;shape-rendering:crispEdges;"/>
  <rect x="76.19047619047619" y="304.76190476190476" width="19.047619047619047" height="19.047619047619047" style="fill:#000000;shape-rendering:crispEdges;"/>
  <rect x="114.28571428571428" y="304.76190476190476" width="19.047619047619047" height="19.047619047619047" style="fill:#000000;shape-rendering:crispEdges;"/>
  <rect x="266.6666666666667" y="304.76190476190476" width="19.047619047619047" height="19.047619047619047" style="fill:#000000;shape-rendering:crispEdges;"/>
  <rect x="285.7142857142857" y="304.76190476190476" width="19.047619047619047" height="19.047619047619047" style="fill:#000000;shape-rendering:crispEdges;"/>
  <rect x="304.76190476190476" y="304.76190476190476" width="19.047619047619047" height="19.047619047619047" style="fill:#000000;shape-rendering:crispEdges;"/>
  <rect x="361.9047619047619" y="304.76190476190476" width="19.047619047619047" height="19.047619047619047" style="fill:#000000;shape-rendering:crispEdges;"/>
  <rect x="380.95238095238096" y="304.76190476190476" width="19.047619047619047" height="19.047619047619047" style="fill:#000000;shape-rendering:crispEdges;"/>
  <rect x="0" y="323.8095238095238" width="19.047619047619047" height="19.047619047619047" style="fill:#000000;shape-rendering:crispEdges;"/>
  <rect x="38.095238095238095" y="323.8095238095238" width="19.047619047619047" height="19.047619047619047" style="fill:#000000;shape-rendering:crispEdges;"/>
  <rect x="57.14285714285714" y="323.8095238095238" width="19.047619047619047" height="19.047619047619047" style="fill:#000000;shape-rendering:crispEdges;"/>
  <rect x="76.19047619047619" y="323.8095238095238" width="19.047619047619047" height="19.047619047619047" style="fill:#000000;shape-rendering:crispEdges;"/>
  <rect x="114.28571428571428" y="323.8095238095238" width="19.047619047619047" height="19.047619047619047" style="fill:#000000;shape-rendering:crispEdges;"/>
  <rect x="152.38095238095238" y="323.8095238095238" width="19.047619047619047" height="19.047619047619047" style="fill:#000000;shape-rendering:crispEdges;"/>
  <rect x="171.42857142857142" y="323.8095238095238" width="19.047619047619047" height="19.047619047619047" style="fill:#000000;shape-rendering:crispEdges;"/>
  <rect x="190.47619047619048" y="323.8095238095238" width="19.047619047619047" height="19.047619047619047" style="fill:#000000;shape-rendering:crispEdges;"/>
  <rect x="247.61904761904762" y="323.8095238095238" width="19.047619047619047" height="19.047619047619047" style="fill:#000000;shape-rendering:crispEdges;"/>
  <rect x="285.7142857142857" y="323.8095238095238" width="19.047619047619047" height="19.047619047619047" style="fill:#000000;shape-rendering:crispEdges;"/>
  <rect x="323.8095238095238" y="323.8095238095238" width="19.047619047619047" height="19.047619047619047" style="fill:#000000;shape-rendering:crispEdges;"/>
  <rect x="361.9047619047619" y="323.8095238095238" width="19.047619047619047" height="19.047619047619047" style="fill:#000000;shape-rendering:crispEdges;"/>
  <rect x="0" y="342.85714285714283" width="19.047619047619047" height="19.047619047619047" style="fill:#000000;shape-rendering:crispEdges;"/>
  <rect x="38.095238095238095" y="342.85714285714283" width="19.047619047619047" height="19.047619047619047" style="fill:#000000;shape-rendering:crispEdges;"/>
  <rect x="57.14285714285714" y="342.85714285714283" width="19.047619047619047" height="19.047619047619047" style="fill:#000000;shape-rendering:crispEdges;"/>
  <rect x="76.19047619047619" y="342.85714285714283" width="19.047619047619047" height="19.047619047619047" style="fill:#000000;shape-rendering:crispEdges;"/>
  <rect x="114.28571428571428" y="342.85714285714283" width="19.047619047619047" height="19.047619047619047" style="fill:#000000;shape-rendering:crispEdges;"/>
  <rect x="171.42857142857142" y="342.85714285714283" width="19.047619047619047" height="19.047619047619047" style="fill:#000000;shape-rendering:crispEdges;"/>
  <rect x="209.52380952380952" y="342.85714285714283" width="19.047619047619047" height="19.047619047619047" style="fill:#000000;shape-rendering:crispEdges;"/>
  <rect x="285.7142857142857" y="342.85714285714283" width="19.047619047619047" height="19.047619047619047" style="fill:#000000;shape-rendering:crispEdges;"/>
  <rect x="361.9047619047619" y="342.85714285714283" width="19.047619047619047" height="19.047619047619047" style="fill:#000000;shape-rendering:crispEdges;"/>
  <rect x="0" y="361.9047619047619" width="19.047619047619047" height="19.047619047619047" style="fill:#000000;shape-rendering:crispEdges;"/>
  <rect x="114.28571428571428" y="361.9047619047619" width="19.047619047619047" height="19.047619047619047" style="fill:#000000;shape-rendering:crispEdges;"/>
  <rect x="152.38095238095238" y="361.9047619047619" width="19.047619047619047" height="19.047619047619047" style="fill:#000000;shape-rendering:crispEdges;"/>
  <rect x="190.47619047619048" y="361.9047619047619" width="19.047619047619047" height="19.047619047619047" style="fill:#000000;shape-rendering:crispEdges;"/>
  <rect x="228.57142857142856" y="361.9047619047619" width="19.047619047619047" height="19.047619047619047" style="fill:#000000;shape-rendering:crispEdges;"/>
  <rect x="247.61904761904762" y="361.9047619047619" width="19.047619047619047" height="19.047619047619047" style="fill:#000000;shape-rendering:crispEdges;"/>
  <rect x="266.6666666666667" y="361.9047619047619" width="19.047619047619047" height="19.047619047619047" style="fill:#000000;shape-rendering:crispEdges;"/>
  <rect x="285.7142857142857" y="361.9047619047619" width="19.047619047619047" height="19.047619047619047" style="fill:#000000;shape-rendering:crispEdges;"/>
  <rect x="304.76190476190476" y="361.9047619047619" width="19.047619047619047" height="19.047619047619047" style="fill:#000000;shape-rendering:crispEdges;"/>
  <rect x="380.95238095238096" y="361.9047619047619" width="19.047619047619047" height="19.047619047619047" style="fill:#000000;shape-rendering:crispEdges;"/>
  <rect x="0" y="380.95238095238096" width="19.047619047619047" height="19.047619047619047" style="fill:#000000;shape-rendering:crispEdges;"/>
  <rect x="19.047619047619047" y="380.95238095238096" width="19.047619047619047" height="19.047619047619047" style="fill:#000000;shape-rendering:crispEdges;"/>
  <rect x="38.095238095238095" y="380.95238095238096" width="19.047619047619047" height="19.047619047619047" style="fill:#000000;shape-rendering:crispEdges;"/>
  <rect x="57.14285714285714" y="380.95238095238096" width="19.047619047619047" height="19.047619047619047" style="fill:#000000;shape-rendering:crispEdges;"/>
  <rect x="76.19047619047619" y="380.95238095238096" width="19.047619047619047" height="19.047619047619047" style="fill:#000000;shape-rendering:crispEdges;"/>
  <rect x="95.23809523809524" y="380.95238095238096" width="19.047619047619047" height="19.047619047619047" style="fill:#000000;shape-rendering:crispEdges;"/>
  <rect x="114.28571428571428" y="380.95238095238096" width="19.047619047619047" height="19.047619047619047" style="fill:#000000;shape-rendering:crispEdges;"/>
  <rect x="171.42857142857142" y="380.95238095238096" width="19.047619047619047" height="19.047619047619047" style="fill:#000000;shape-rendering:crispEdges;"/>
  <rect x="209.52380952380952" y="380.95238095238096" width="19.047619047619047" height="19.047619047619047" style="fill:#000000;shape-rendering:crispEdges;"/>
  <rect x="247.61904761904762" y="380.95238095238096" width="19.047619047619047" height="19.047619047619047" style="fill:#000000;shape-rendering:crispEdges;"/>
</svg>